<svg height="76" viewBox="0 0 76 76" width="76" xmlns="http://www.w3.org/2000/svg"><path d="m38 1.33c-20.66 0-37.4 15.31-37.4 34.2 0 10.13 4.82 19.23 12.48 25.49l-3.33 12.46 9.4-8.41c5.53 2.96 11.97 4.66 18.84 4.66 20.66 0 37.4-15.31 37.4-34.2.01-18.88-16.73-34.2-37.39-34.2z" fill="#fff"/><path d="m8.65 75.27 3.75-14.02c-7.89-6.59-12.4-15.94-12.4-25.72 0-19.19 17.05-34.8 38-34.8s38 15.61 38 34.8-17.05 34.8-38 34.8c-6.59 0-13.06-1.56-18.76-4.53zm29.35-73.33c-20.29 0-36.8 15.07-36.8 33.6 0 9.53 4.47 18.66 12.26 25.03l.3.25-2.91 10.88 8.22-7.34.37.2c5.61 3 12.03 4.58 18.56 4.58 20.29 0 36.8-15.07 36.8-33.6s-16.51-33.6-36.8-33.6z" fill="#9b9b9c"/></svg>