<svg enable-background="new 0 0 700 644" height="644" preserveAspectRatio="none" viewBox="0 0 700 644" width="700" xmlns="http://www.w3.org/2000/svg"><g fill="#fff"><path d="m609.982 171.125c.132-5.902-.104-11.877-.732-17.901-8.044-77.204-77.147-133.267-154.354-125.224-28.765 2.996-54.593 14.474-75.269 31.685-40.544-40.885-98.57-63.719-160.299-57.288-108.165 11.27-186.712 108.088-175.444 216.249 2.465 23.653 9.02 45.888 18.89 66.078-18.743 24.454-28.532 55.839-25.089 88.901 7.148 68.608 68.56 118.431 137.169 111.285 23.943-2.496 45.594-11.605 63.341-25.318 24.551 55.331 82.647 91.135 146.109 84.524 44.839-4.672 82.688-29.514 105.5-64.569 16.297 3.301 33.364 4.219 50.779 2.404 92.257-9.612 159.255-92.192 149.644-184.448-5.671-54.44-36.758-100.081-80.245-126.378z"/><circle cx="182.797" cy="425.424" r="182.649"/><circle cx="450.679" cy="445.062" r="198.624"/></g></svg>