<svg enable-background="new 0 0 70 70" height="160" viewBox="0 0 70 70" width="160" xmlns="http://www.w3.org/2000/svg"><path d="m69.29 35-13.38 6.79 6.83 13.37-14.83-2.37-2.31 14.83-10.6-10.65-10.6 10.65-2.32-14.83-14.83 2.37 6.84-13.37-13.39-6.79 13.39-6.8-6.84-13.36 14.83 2.37 2.32-14.83 10.6 10.64 10.6-10.64 2.31 14.83 14.83-2.38-6.83 13.37z" fill="#f9cc92"/><path d="m24.4 68.33-.22-.04c-.25-.08-.44-.3-.48-.56l-2.2-14.14-14.13 2.26c-.26.04-.53-.06-.68-.28-.15-.21-.18-.49-.06-.73l6.51-12.74-12.75-6.48c-.24-.12-.39-.36-.39-.62s.15-.51.39-.62l12.75-6.48-6.51-12.74c-.12-.24-.1-.52.06-.73.15-.21.42-.32.68-.28l14.13 2.25 2.21-14.14c.04-.26.22-.48.48-.56.25-.08.53-.01.71.17l10.1 10.16 10.1-10.15c.19-.19.46-.25.71-.17s.44.3.47.56l2.21 14.14 14.13-2.27c.26-.04.53.06.68.28.15.21.18.5.06.73l-6.51 12.75 12.76 6.47c.24.12.39.37.39.63s-.15.51-.39.62l-12.76 6.48 6.46 12.64c.09.12.13.26.13.42 0 .39-.31.7-.7.7h-.01l-.11-.01-14.12-2.26-2.21 14.14c-.04.26-.22.48-.47.56s-.53.02-.71-.17l-10.11-10.15-10.1 10.15c-.14.13-.32.21-.5.21zm-2.32-16.25c.15 0 .29.04.41.13.15.11.25.28.28.46l2.1 13.47 9.62-9.66c.26-.27.73-.27 1 0l9.62 9.66 2.1-13.47c.03-.18.13-.35.28-.46s.34-.15.53-.12l13.46 2.16-6.21-12.14c-.08-.17-.1-.36-.04-.54s.18-.33.35-.41l12.16-6.16-12.15-6.17c-.17-.08-.29-.23-.35-.41s-.04-.37.04-.54l6.21-12.14-13.46 2.16c-.19.03-.37-.01-.53-.12-.15-.11-.25-.28-.28-.46l-2.1-13.47-9.62 9.66c-.26.26-.73.26-1 0l-9.62-9.66-2.1 13.47c-.03.18-.13.35-.28.46s-.34.15-.53.12l-13.46-2.15 6.21 12.14c.08.17.1.36.04.54s-.18.33-.35.41l-12.15 6.16 12.15 6.17c.17.08.29.23.35.41s.04.37-.04.54l-6.21 12.13 13.46-2.16z" fill="#9e9e9f"/><path d="m30.62 28.88c-.13 0-.25-.03-.35-.1s-.17-.17-.2-.3c-.14-.52-.29-1.05-.45-1.6l-.44-1.54-.46-1.63-.73 4.15c-.02.15-.1.27-.22.35s-.26.12-.41.09c-.15-.02-.27-.1-.35-.22s-.11-.26-.09-.41l1.15-6.51c.02-.13.08-.23.17-.32.09-.08.2-.13.34-.14.13 0 .25.02.35.1.1.07.17.17.21.3.14.52.29 1.05.45 1.6l.44 1.54c.16.56.31 1.11.47 1.63l.73-4.15c.02-.15.1-.27.22-.35s.26-.11.41-.09.27.1.35.22.11.26.09.41l-1.15 6.52c-.02.13-.08.23-.18.32-.12.08-.22.13-.35.13zm3.82.69c-.26-.04-.5-.14-.71-.27-.21-.14-.39-.31-.53-.51s-.24-.43-.3-.67c-.06-.25-.06-.5-.01-.76l.67-3.82c.04-.26.14-.5.27-.71.14-.21.31-.39.51-.53s.43-.24.67-.3c.24-.05.5-.06.76-.02s.5.14.71.27.39.31.53.51.24.43.3.67c.06.25.06.5.02.76l-.67 3.82c-.04.26-.14.5-.28.71s-.31.39-.51.53c-.21.14-.43.24-.67.3-.25.06-.5.07-.76.02zm1.15-6.51c-.22-.04-.43 0-.61.13s-.3.31-.34.53l-.67 3.82c-.04.22 0 .43.13.62s.31.3.53.34.43 0 .61-.13.3-.31.34-.53l.67-3.82c.04-.22 0-.43-.13-.61-.13-.2-.31-.31-.53-.35zm3.7-.45c.15-.01.29.03.4.13s.17.23.18.39l.09 1.51.09 1.46.11 1.55.61-1.42c.21-.49.41-.94.59-1.34l.61-1.39c.05-.12.13-.21.24-.27s.23-.07.36-.05.23.08.31.17.12.2.13.34c.03.49.06 1 .1 1.51l.09 1.46.1 1.55c.19-.46.4-.93.62-1.42.21-.49.41-.94.59-1.34l.61-1.39c.06-.14.16-.24.3-.3s.28-.05.42.01.24.16.29.31c.05.14.04.28-.02.41l-2.72 6.24c-.05.12-.13.21-.24.27s-.22.07-.35.05-.23-.08-.32-.17c-.08-.09-.13-.2-.14-.34l-.09-1.51-.09-1.46-.09-1.55-.63 1.42-.59 1.34-.61 1.39c-.05.12-.13.21-.24.27-.1.06-.22.07-.35.05-.13-.03-.23-.08-.32-.17s-.13-.2-.14-.34l-.42-6.79c-.02-.15.03-.28.13-.39.11-.11.24-.18.39-.19zm-8.15 15.82c-.26-.04-.5-.14-.71-.28s-.39-.31-.53-.51-.24-.43-.3-.67c-.06-.25-.06-.5-.02-.76l.67-3.82c.04-.26.14-.5.27-.71s.31-.39.51-.53.43-.24.67-.3c.25-.06.5-.06.76-.01.26.04.5.14.71.28s.39.31.53.51.24.43.3.67.06.5.01.76l-.67 3.82c-.04.26-.14.5-.28.71s-.31.39-.51.53-.43.24-.67.3c-.23.05-.48.06-.74.01zm1.15-6.51c-.22-.04-.43.01-.61.13-.18.13-.3.31-.34.53l-.67 3.82c-.04.22.01.43.13.62s.31.3.53.34.43 0 .61-.13.3-.31.34-.53l.67-3.82c.04-.22 0-.43-.13-.61s-.31-.31-.53-.35zm6.05 7.77c-.13.01-.25-.02-.35-.1s-.17-.17-.2-.3c-.14-.52-.29-1.05-.45-1.6l-.44-1.54-.46-1.63-.73 4.15c-.02.15-.1.27-.22.35s-.26.11-.41.09c-.15-.03-.27-.11-.35-.22-.08-.12-.11-.26-.09-.41l1.15-6.51c.03-.13.08-.23.17-.32.09-.08.2-.13.34-.14.13 0 .25.03.35.1s.17.17.21.3c.14.52.29 1.05.45 1.6l.44 1.54.46 1.63.73-4.15c.03-.15.11-.27.22-.35.12-.08.26-.12.41-.09s.27.1.35.22.12.26.09.41l-1.15 6.51c-.02.13-.08.23-.18.32s-.21.13-.34.14zm-12.65 5.93c.12-.06.21-.13.28-.23.07-.09.12-.2.16-.33.06-.25.03-.49-.12-.71l-1.47-2.15c-.16-.23-.26-.48-.31-.75-.04-.27-.03-.54.04-.8s.19-.51.36-.72.38-.38.62-.51c.25-.13.51-.19.78-.21.28-.02.54.03.79.13s.48.25.67.45c.19.19.34.42.43.69.05.14.04.28-.02.41s-.17.23-.31.29c-.14.05-.28.04-.41-.02s-.23-.17-.28-.31c-.09-.22-.25-.39-.47-.49-.23-.09-.46-.07-.68.04s-.36.28-.42.53c-.06.24-.02.46.11.66l1.46 2.16c.16.24.26.5.32.77.05.28.04.56-.03.83-.07.28-.2.53-.38.74-.18.22-.39.39-.63.53-.26.13-.52.2-.8.22-.28.01-.56-.04-.82-.13-.27-.11-.5-.26-.69-.46s-.34-.43-.44-.7c-.06-.14-.05-.28.01-.42s.17-.23.31-.29c.14-.05.28-.04.41.02.13.07.23.17.29.31.09.24.25.41.5.52.26.06.51.05.74-.07zm7.01 1.82c.01.16-.03.29-.12.41-.09.11-.21.18-.36.19-.16.01-.29-.03-.41-.12-.11-.09-.18-.21-.19-.36l-.03-.34-.04-.4-.04-.5-1.91-.34-.22.45-.17.36-.15.31c-.06.13-.16.23-.3.28s-.28.04-.43-.02c-.13-.07-.23-.16-.28-.3s-.04-.28.02-.43l2.94-6.2c.05-.11.13-.2.23-.25s.22-.07.35-.05.23.08.31.16c.08.09.12.19.13.32zm-1.32-2.25c-.03-.41-.07-.83-.11-1.26l-.12-1.22c-.17.35-.35.72-.53 1.11s-.36.77-.54 1.14zm2.72 3c-.08-.12-.11-.26-.09-.41l1.14-6.47c.02-.15.1-.27.22-.35s.26-.11.41-.09.27.1.35.22.11.26.09.41l-1.05 5.93 1.71.3c.15.03.27.1.35.22s.11.26.09.41-.1.27-.22.35-.26.12-.41.09l-2.24-.4c-.15-.02-.27-.09-.35-.21zm5.86-6.38c.12-.08.26-.12.41-.09l2.24.4c.15.03.27.1.35.22s.11.26.09.41-.1.27-.22.35-.26.11-.41.09l-1.71-.3-.36 2.02 1.48.26c.15.03.27.1.35.22s.12.26.09.41-.1.27-.22.35-.26.11-.41.09l-1.48-.26-.4 2.25 1.71.3c.15.02.27.1.35.22.09.12.12.26.09.41s-.1.27-.22.35-.26.12-.41.09l-2.24-.4c-.15-.02-.27-.1-.35-.22-.09-.12-.11-.26-.09-.41l1.13-6.43c.03-.13.11-.24.23-.33z" fill="#888"/></svg>