<svg height="35" viewBox="0 0 70 70" width="35" xmlns="http://www.w3.org/2000/svg"><path d="m.12 14.06h69.75v41.88h-69.75z" fill="#231815"/><g fill="#fff"><path d="m59.1 41.86c-.09-.25-.37-.58-.61-.69.36-.05 1.38-.57 1.38-1.75 0-1.59-1.06-2.17-2.21-2.17h-2.61v7.6h1.16v-3.22h.87c.4 0 .73.08.98.62l1.2 2.6h1.21zm-1.44-1.4h-1.45v-2.06h1.45c.66 0 1.07.45 1.07 1.03 0 .59-.4 1.03-1.07 1.03m-26.76-2.06v-1.15h-4.28v7.59h1.17v-3.22h3.11v-1.16h-3.11v-2.06zm2.65 5.29v-6.44h-1.16v7.59h4.28v-1.15zm20.14-2.65c0 2.17-1.76 3.93-3.93 3.93s-3.93-1.76-3.93-3.93 1.76-3.93 3.93-3.93c2.17.01 3.93 1.77 3.93 3.93m-3.93-2.69c-1.49 0-2.7 1.21-2.7 2.7s1.21 2.7 2.7 2.7 2.7-1.21 2.7-2.7-1.21-2.7-2.7-2.7m-4.69 2.69c0 2.17-1.76 3.93-3.93 3.93s-3.93-1.76-3.93-3.93 1.76-3.93 3.93-3.93c2.17.01 3.93 1.77 3.93 3.93m-3.93-2.69c-1.49 0-2.7 1.21-2.7 2.7s1.21 2.7 2.7 2.7 2.7-1.21 2.7-2.7-1.21-2.7-2.7-2.7m-14.12-16.43c-3.59 0-6.5 2.91-6.5 6.5v4.5h-4.5c-3.59 0-6.51 2.92-6.51 6.5 0 3.59 2.91 6.5 6.51 6.5 3.59 0 6.51-2.9 6.51-6.5l.01-4.49 4.49-.01c3.59 0 6.49-2.92 6.49-6.51 0-3.58-2.91-6.49-6.5-6.49m-6.52 17.51c0 2.46-2.01 4.45-4.48 4.45s-4.46-1.99-4.46-4.46c0-2.46 1.99-4.47 4.46-4.47l4.5-.01zm10.98-11.01c0 2.46-1.99 4.48-4.45 4.48l-4.49.02.01-4.5c0-2.47 2.01-4.46 4.47-4.46 2.47-.01 4.46 1.99 4.46 4.46"/><path d="m48.28 32.63h.35v2.32h-.35zm4.53 2.32h.38l-.96-2.32h-.36l-.97 2.32h.39l.23-.56h1.06zm-1.14-.91.38-.92.38.92zm-.72-1.41h-1.81v.35h.73v1.97h.35v-1.97h.73zm-5.65.35v-.35h-1.31v2.32h1.31v-.35h-.95v-.63h.95v-.36h-.95v-.63zm-2.51-.35-.73 1.86-.72-1.86h-.55v2.32h.35v-1.92l.74 1.92h.36l.74-1.92v1.92h.36v-2.32zm5.04 0h-.47l-1.05 1.06v-1.06h-.36v2.32h.36v-1.06l1.05 1.06h.47l-1.15-1.16zm-8.06 0v1.47c0 .3-.25.54-.54.54-.3 0-.55-.24-.55-.54v-1.47h-.35v1.47c0 .5.4.9.9.9.49 0 .9-.4.9-.9v-1.47z"/></g></svg>