<svg enable-background="new 0 0 520 320" height="320" viewBox="0 0 520 320" width="520" xmlns="http://www.w3.org/2000/svg"><g style="fill:#fff000;stroke:#fff000;stroke-width:9.7136;stroke-linecap:round;stroke-linejoin:round;stroke-miterlimit:10"><path d="m418.617 156.298-.022-.019c-.942-.485-1.995-.762-3.077-.762-2.351 0-4.539 1.217-5.713 3.184-2.666 4.661-7.398 7.444-12.639 7.444-1.344 0-2.691-.19-4.006-.551-6.549-1.84-10.943-7.601-10.943-14.308v-60.105c0-6.705 4.395-12.46 10.943-14.302 1.314-.37 2.667-.562 4.006-.562 5.246 0 9.973 2.777 12.647 7.467 1.195 1.996 3.388 3.239 5.696 3.239 1.104 0 2.178-.297 3.107-.851 2.961-1.785 4.043-5.709 2.376-8.812-5.081-8.579-14.205-13.909-23.815-13.909-2.446 0-4.88.344-7.251 1.022-12.281 3.429-20.528 14.158-20.528 26.707v60.106c0 12.538 8.247 23.266 20.528 26.706 2.34.637 4.759.967 7.187.967 9.893 0 19.041-5.322 23.901-13.883 1.646-3.064.564-7.001-2.397-8.778"/><path d="m418.617 156.298-.022-.019c-.942-.485-1.995-.762-3.077-.762-2.351 0-4.539 1.217-5.713 3.184-2.666 4.661-7.398 7.444-12.639 7.444-1.344 0-2.691-.19-4.006-.551-6.549-1.84-10.943-7.601-10.943-14.308v-60.105c0-6.705 4.395-12.46 10.943-14.302 1.314-.37 2.667-.562 4.006-.562 5.246 0 9.973 2.777 12.647 7.467 1.195 1.996 3.388 3.239 5.696 3.239 1.104 0 2.178-.297 3.107-.851 2.961-1.785 4.043-5.709 2.376-8.812-5.081-8.579-14.205-13.909-23.815-13.909-2.446 0-4.88.344-7.251 1.022-12.281 3.429-20.528 14.158-20.528 26.707v60.106c0 12.538 8.247 23.266 20.528 26.706 2.34.637 4.759.967 7.187.967 9.893 0 19.041-5.322 23.901-13.883 1.646-3.064.564-7.001-2.397-8.778z"/><path d="m480.215 63.562c-15.232 0-27.621 12.388-27.621 27.618v60.106c0 15.229 12.389 27.62 27.621 27.62 15.23 0 27.621-12.391 27.621-27.62v-60.105c0-15.231-12.391-27.619-27.621-27.619m-14.807 27.619c0-8.165 6.646-14.806 14.807-14.806 8.021 0 14.806 6.776 14.806 14.806v60.106c0 8.162-6.646 14.807-14.806 14.807-8.309 0-14.807-6.5-14.807-14.807z"/><path d="m480.215 63.562c-15.232 0-27.621 12.388-27.621 27.618v60.106c0 15.229 12.389 27.62 27.621 27.62 15.23 0 27.621-12.391 27.621-27.62v-60.105c0-15.231-12.391-27.619-27.621-27.619zm-14.807 27.619c0-8.165 6.646-14.806 14.807-14.806 8.021 0 14.806 6.776 14.806 14.806v60.106c0 8.162-6.646 14.807-14.806 14.807-8.309 0-14.807-6.5-14.807-14.807z"/><path d="m64.532 64.261h-45.959c-3.591 0-6.408 2.823-6.408 6.41 0 3.597 2.817 6.407 6.408 6.407h16.567v95.425c0 3.59 2.821 6.405 6.414 6.405 3.772 0 6.4-2.63 6.4-6.405v-95.425h16.579c3.778 0 6.41-2.628 6.41-6.407-.001-3.78-2.633-6.41-6.411-6.41"/><path d="m64.532 64.261h-45.959c-3.591 0-6.408 2.823-6.408 6.41 0 3.597 2.817 6.407 6.408 6.407h16.567v95.425c0 3.59 2.821 6.405 6.414 6.405 3.772 0 6.4-2.63 6.4-6.405v-95.425h16.579c3.778 0 6.41-2.628 6.41-6.407-.001-3.78-2.633-6.41-6.411-6.41z"/><path d="m153.8 151.287v-60.106c0-15.23-12.395-27.618-27.624-27.618-15.227 0-27.622 12.388-27.622 27.618v60.106c0 15.229 12.395 27.62 27.622 27.62 15.229 0 27.624-12.39 27.624-27.62m-42.432-60.106c0-8.165 6.643-14.806 14.809-14.806 8.027 0 14.807 6.776 14.807 14.806v60.106c0 8.162-6.642 14.807-14.807 14.807-8.302 0-14.809-6.5-14.809-14.807z"/><path d="m153.8 151.287v-60.106c0-15.23-12.395-27.618-27.624-27.618-15.227 0-27.622 12.388-27.622 27.618v60.106c0 15.229 12.395 27.62 27.622 27.62 15.229 0 27.624-12.39 27.624-27.62zm-42.432-60.106c0-8.165 6.643-14.806 14.809-14.806 8.027 0 14.807 6.776 14.807 14.806v60.106c0 8.162-6.642 14.807-14.807 14.807-8.302 0-14.809-6.5-14.809-14.807z"/><path d="m236.422 178.979c.802 0 1.576-.168 2.293-.486 1.763-.719 3.14-2.084 3.811-3.734.591-1.463.573-3.058-.041-4.488l-16.011-43.151c10.001-4.408 16.417-14.273 16.417-25.338v-9.892c0-15.235-12.39-27.629-27.624-27.629h-21.21c-3.597 0-6.408 2.815-6.408 6.41v101.832c0 3.582 2.811 6.405 6.408 6.405 3.777 0 6.412-2.644 6.412-6.405v-43.099h13.222l16.802 45.319c1.057 2.579 3.392 4.256 5.929 4.256m-21.155-62.388h-14.798v-39.513h14.798c8.171 0 14.811 6.641 14.811 14.812v9.892c0 8.308-6.495 14.809-14.811 14.809"/><path d="m236.422 178.979c.802 0 1.576-.168 2.293-.486 1.763-.719 3.14-2.084 3.811-3.734.591-1.463.573-3.058-.041-4.488l-16.011-43.151c10.001-4.408 16.417-14.273 16.417-25.338v-9.892c0-15.235-12.39-27.629-27.624-27.629h-21.21c-3.597 0-6.408 2.815-6.408 6.41v101.832c0 3.582 2.811 6.405 6.408 6.405 3.777 0 6.412-2.644 6.412-6.405v-43.099h13.222l16.802 45.319c1.057 2.579 3.392 4.256 5.929 4.256zm-21.155-62.388h-14.798v-39.513h14.798c8.171 0 14.811 6.641 14.811 14.812v9.892c0 8.308-6.495 14.809-14.811 14.809z"/><path d="m276.668 178.704c.636.167 1.285.251 1.903.251 2.857 0 5.252-1.829 6.084-4.651.523-1.743 1.062-3.711 1.587-5.83.592-1.762 1.088-3.76 1.668-6.06.602-2.449 1.299-5.205 2.233-8.259h33.165l.36 1.427c1.378 5.335 2.453 9.556 3.562 12.892.521 2.094 1.063 4.055 1.596 5.83.819 2.783 3.253 4.651 6.054 4.651.59 0 1.188-.086 1.751-.251 1.802-.473 3.262-1.553 4.093-3.029.818-1.439.992-3.141.505-4.794l-28.289-102.525c-.782-2.958-3.161-4.794-6.206-4.794-3.033 0-5.409 1.836-6.195 4.786l-28.283 102.515c-.99 3.38.945 6.818 4.412 7.841m17.092-37.363c1.279-4.717 2.608-9.638 3.939-14.573 3.188-11.746 6.453-23.854 9.006-32.784 1.967 7.342 4.562 16.734 7.295 26.603 1.91 6.916 3.899 14.054 5.723 20.755h-25.963z"/><path d="m276.668 178.704c.636.167 1.285.251 1.903.251 2.857 0 5.252-1.829 6.084-4.651.523-1.743 1.062-3.711 1.587-5.83.592-1.762 1.088-3.76 1.668-6.06.602-2.449 1.299-5.205 2.233-8.259h33.165l.36 1.427c1.378 5.335 2.453 9.556 3.562 12.892.521 2.094 1.063 4.055 1.596 5.83.819 2.783 3.253 4.651 6.054 4.651.59 0 1.188-.086 1.751-.251 1.802-.473 3.262-1.553 4.093-3.029.818-1.439.992-3.141.505-4.794l-28.289-102.525c-.782-2.958-3.161-4.794-6.206-4.794-3.033 0-5.409 1.836-6.195 4.786l-28.283 102.515c-.99 3.38.945 6.818 4.412 7.841zm17.092-37.363c1.279-4.717 2.608-9.638 3.939-14.573 3.188-11.746 6.453-23.854 9.006-32.784 1.967 7.342 4.562 16.734 7.295 26.603 1.91 6.916 3.899 14.054 5.723 20.755h-25.963z"/></g><g fill="#231815"><path d="m64.532 64.261h-45.959c-3.591 0-6.408 2.823-6.408 6.41 0 3.597 2.817 6.407 6.408 6.407h16.567v95.425c0 3.59 2.821 6.405 6.414 6.405 3.772 0 6.4-2.63 6.4-6.405v-95.425h16.579c3.778 0 6.41-2.628 6.41-6.407-.001-3.78-2.633-6.41-6.411-6.41"/><path d="m153.8 151.287v-60.106c0-15.23-12.395-27.618-27.624-27.618-15.227 0-27.622 12.388-27.622 27.618v60.106c0 15.229 12.395 27.62 27.622 27.62 15.229 0 27.624-12.39 27.624-27.62m-42.432-60.106c0-8.165 6.643-14.806 14.809-14.806 8.027 0 14.807 6.776 14.807 14.806v60.106c0 8.162-6.642 14.807-14.807 14.807-8.302 0-14.809-6.5-14.809-14.807z"/><path d="m236.422 178.979c.802 0 1.576-.168 2.293-.486 1.763-.719 3.14-2.084 3.811-3.734.591-1.463.573-3.058-.041-4.488l-16.011-43.151c10.001-4.408 16.417-14.273 16.417-25.338v-9.892c0-15.235-12.39-27.629-27.624-27.629h-21.21c-3.597 0-6.408 2.815-6.408 6.41v101.832c0 3.582 2.811 6.405 6.408 6.405 3.777 0 6.412-2.644 6.412-6.405v-43.099h13.222l16.802 45.319c1.057 2.579 3.392 4.256 5.929 4.256m-21.155-62.388h-14.798v-39.513h14.798c8.171 0 14.811 6.641 14.811 14.812v9.892c0 8.308-6.495 14.809-14.811 14.809"/><path d="m276.668 178.704c.636.167 1.285.251 1.903.251 2.857 0 5.252-1.829 6.084-4.651.523-1.743 1.062-3.711 1.587-5.83.592-1.762 1.088-3.76 1.668-6.06.602-2.449 1.299-5.205 2.233-8.259h33.165l.36 1.427c1.378 5.335 2.453 9.556 3.562 12.892.521 2.094 1.063 4.055 1.596 5.83.819 2.783 3.253 4.651 6.054 4.651.59 0 1.188-.086 1.751-.251 1.802-.473 3.262-1.553 4.093-3.029.818-1.439.992-3.141.505-4.794l-28.289-102.525c-.782-2.958-3.161-4.794-6.206-4.794-3.033 0-5.409 1.836-6.195 4.786l-28.283 102.515c-.99 3.38.945 6.818 4.412 7.841m17.092-37.363c1.279-4.717 2.608-9.638 3.939-14.573 3.188-11.746 6.453-23.854 9.006-32.784 1.967 7.342 4.562 16.734 7.295 26.603 1.91 6.916 3.899 14.054 5.723 20.755h-25.963z"/><path d="m418.617 156.298-.022-.019c-.942-.485-1.995-.762-3.077-.762-2.351 0-4.539 1.217-5.713 3.184-2.666 4.661-7.398 7.444-12.639 7.444-1.344 0-2.691-.19-4.006-.551-6.549-1.84-10.943-7.601-10.943-14.308v-60.105c0-6.705 4.395-12.46 10.943-14.302 1.314-.37 2.667-.562 4.006-.562 5.246 0 9.973 2.777 12.647 7.467 1.195 1.996 3.388 3.239 5.696 3.239 1.104 0 2.178-.297 3.107-.851 2.961-1.785 4.043-5.709 2.376-8.812-5.081-8.579-14.205-13.909-23.815-13.909-2.446 0-4.88.344-7.251 1.022-12.281 3.429-20.528 14.158-20.528 26.707v60.106c0 12.538 8.247 23.266 20.528 26.706 2.34.637 4.759.967 7.187.967 9.893 0 19.041-5.322 23.901-13.883 1.646-3.064.564-7.001-2.397-8.778"/><path d="m480.215 63.562c-15.232 0-27.621 12.388-27.621 27.618v60.106c0 15.229 12.389 27.62 27.621 27.62 15.23 0 27.621-12.391 27.621-27.62v-60.105c0-15.231-12.391-27.619-27.621-27.619m-14.807 27.619c0-8.165 6.646-14.806 14.807-14.806 8.021 0 14.806 6.776 14.806 14.806v60.106c0 8.162-6.646 14.807-14.806 14.807-8.309 0-14.807-6.5-14.807-14.807z"/></g><g style="fill:#fff000;stroke:#fff000;stroke-width:9.7136;stroke-linecap:round;stroke-linejoin:round;stroke-miterlimit:10"><path d="m169.416 194.458h-21.217c-3.773 0-6.406 2.635-6.406 6.406v101.12c0 3.773 2.633 6.407 6.406 6.407h21.217c15.232 0 27.62-12.4 27.62-27.619v-58.698c-.001-15.221-12.389-27.616-27.62-27.616m0 101.119h-14.808v-88.306h14.808c8.156 0 14.804 6.636 14.804 14.803v58.698c-.001 8.297-6.508 14.805-14.804 14.805"/><path d="m169.416 194.458h-21.217c-3.773 0-6.406 2.635-6.406 6.406v101.12c0 3.773 2.633 6.407 6.406 6.407h21.217c15.232 0 27.62-12.4 27.62-27.619v-58.698c-.001-15.221-12.389-27.616-27.62-27.616zm0 101.119h-14.808v-88.306h14.808c8.156 0 14.804 6.636 14.804 14.803v58.698c-.001 8.297-6.508 14.805-14.804 14.805z"/><path d="m265.807 198.545c-.783-2.958-3.158-4.792-6.201-4.792-3.039 0-5.426 1.834-6.206 4.785l-28.282 102.526c-.484 1.641-.294 3.354.56 4.825.822 1.451 2.194 2.519 3.855 3.009.646.162 1.277.249 1.9.249 2.864 0 5.257-1.824 6.084-4.647.525-1.763 1.07-3.725 1.598-5.843.581-1.761 1.07-3.746 1.642-6.053.615-2.443 1.308-5.195 2.252-8.264h33.161l.33 1.268c1.383 5.41 2.484 9.69 3.596 13.049.537 2.121 1.07 4.084 1.601 5.836.823 2.783 3.249 4.654 6.048 4.654.6 0 1.187-.09 1.754-.249 1.814-.478 3.268-1.554 4.103-3.039.812-1.429.985-3.136.499-4.786zm6.786 72.991h-25.976c1.291-4.735 2.623-9.675 3.966-14.631 3.167-11.725 6.437-23.812 8.992-32.73 1.978 7.393 4.586 16.826 7.339 26.76 1.891 6.862 3.856 13.948 5.679 20.601"/><path d="m265.807 198.545c-.783-2.958-3.158-4.792-6.201-4.792-3.039 0-5.426 1.834-6.206 4.785l-28.282 102.526c-.484 1.641-.294 3.354.56 4.825.822 1.451 2.194 2.519 3.855 3.009.646.162 1.277.249 1.9.249 2.864 0 5.257-1.824 6.084-4.647.525-1.763 1.07-3.725 1.598-5.843.581-1.761 1.07-3.746 1.642-6.053.615-2.443 1.308-5.195 2.252-8.264h33.161l.33 1.268c1.383 5.41 2.484 9.69 3.596 13.049.537 2.121 1.07 4.084 1.601 5.836.823 2.783 3.249 4.654 6.048 4.654.6 0 1.187-.09 1.754-.249 1.814-.478 3.268-1.554 4.103-3.039.812-1.429.985-3.136.499-4.786zm6.786 72.991h-25.976c1.291-4.735 2.623-9.675 3.966-14.631 3.167-11.725 6.437-23.812 8.992-32.73 1.978 7.393 4.586 16.826 7.339 26.76 1.891 6.862 3.856 13.948 5.679 20.601z"/><path d="m370.787 194.362-.037-.016c-.878-.387-1.787-.578-2.736-.578-2.496 0-4.736 1.37-5.834 3.581l-18.959 37.898-18.947-37.898c-1.09-2.177-3.402-3.581-5.92-3.581-.934 0-1.855.199-2.688.594-1.583.786-2.806 2.223-3.35 3.934-.514 1.609-.385 3.277.353 4.672l24.143 48.285v51.443c0 3.764 2.645 6.401 6.409 6.401 3.779 0 6.408-2.638 6.408-6.401v-51.443l24.133-48.262c.756-1.418.881-3.086.377-4.695-.555-1.703-1.778-3.148-3.352-3.934"/><path d="m370.787 194.362-.037-.016c-.878-.387-1.787-.578-2.736-.578-2.496 0-4.736 1.37-5.834 3.581l-18.959 37.898-18.947-37.898c-1.09-2.177-3.402-3.581-5.92-3.581-.934 0-1.855.199-2.688.594-1.583.786-2.806 2.223-3.35 3.934-.514 1.609-.385 3.277.353 4.672l24.143 48.285v51.443c0 3.764 2.645 6.401 6.409 6.401 3.779 0 6.408-2.638 6.408-6.401v-51.443l24.133-48.262c.756-1.418.881-3.086.377-4.695-.555-1.703-1.778-3.148-3.352-3.934z"/></g><g fill="#231815"><path d="m169.416 194.458h-21.217c-3.773 0-6.406 2.635-6.406 6.406v101.12c0 3.773 2.633 6.407 6.406 6.407h21.217c15.232 0 27.62-12.4 27.62-27.619v-58.698c-.001-15.221-12.389-27.616-27.62-27.616m0 101.119h-14.808v-88.306h14.808c8.156 0 14.804 6.636 14.804 14.803v58.698c-.001 8.297-6.508 14.805-14.804 14.805"/><path d="m265.807 198.545c-.783-2.958-3.158-4.792-6.201-4.792-3.039 0-5.426 1.834-6.206 4.785l-28.282 102.526c-.484 1.641-.294 3.354.56 4.825.822 1.451 2.194 2.519 3.855 3.009.646.162 1.277.249 1.9.249 2.864 0 5.257-1.824 6.084-4.647.525-1.763 1.07-3.725 1.598-5.843.581-1.761 1.07-3.746 1.642-6.053.615-2.443 1.308-5.195 2.252-8.264h33.161l.33 1.268c1.383 5.41 2.484 9.69 3.596 13.049.537 2.121 1.07 4.084 1.601 5.836.823 2.783 3.249 4.654 6.048 4.654.6 0 1.187-.09 1.754-.249 1.814-.478 3.268-1.554 4.103-3.039.812-1.429.985-3.136.499-4.786zm6.786 72.991h-25.976c1.291-4.735 2.623-9.675 3.966-14.631 3.167-11.725 6.437-23.812 8.992-32.73 1.978 7.393 4.586 16.826 7.339 26.76 1.891 6.862 3.856 13.948 5.679 20.601"/><path d="m370.787 194.362-.037-.016c-.878-.387-1.787-.578-2.736-.578-2.496 0-4.736 1.37-5.834 3.581l-18.959 37.898-18.947-37.898c-1.09-2.177-3.402-3.581-5.92-3.581-.934 0-1.855.199-2.688.594-1.583.786-2.806 2.223-3.35 3.934-.514 1.609-.385 3.277.353 4.672l24.143 48.285v51.443c0 3.764 2.645 6.401 6.409 6.401 3.779 0 6.408-2.638 6.408-6.401v-51.443l24.133-48.262c.756-1.418.881-3.086.377-4.695-.555-1.703-1.778-3.148-3.352-3.934"/></g><g style="fill:#fff000;stroke:#fff000;stroke-linecap:round;stroke-linejoin:round;stroke-miterlimit:10;stroke-width:5.8282"><path d="m130.597 12.794c0 1.008-.77 1.788-1.775 1.788h-3.048v19.626c0 1.012-.785 1.79-1.785 1.79-1.006 0-1.787-.778-1.787-1.79v-19.626h-3.05c-1.002 0-1.785-.78-1.785-1.788 0-1.003.783-1.784 1.785-1.784h9.67c1.005 0 1.775.781 1.775 1.784"/><path d="m130.597 12.794c0 1.008-.77 1.788-1.775 1.788h-3.048v19.626c0 1.012-.785 1.79-1.785 1.79-1.006 0-1.787-.778-1.787-1.79v-19.626h-3.05c-1.002 0-1.785-.78-1.785-1.788 0-1.003.783-1.784 1.785-1.784h9.67c1.005 0 1.775.781 1.775 1.784z"/><path d="m136.039 34.208v-21.559c0-1.005.776-1.798 1.783-1.798 1.006 0 1.787.793 1.787 1.798v21.559c0 1.012-.78 1.79-1.787 1.79s-1.783-.778-1.783-1.79"/><path d="m136.039 34.208v-21.559c0-1.005.776-1.798 1.783-1.798 1.006 0 1.787.793 1.787 1.798v21.559c0 1.012-.78 1.79-1.787 1.79s-1.783-.778-1.783-1.79z"/><path d="m158.069 23.796v5.952c0 3.457-2.792 6.25-6.247 6.25-3.406 0-6.238-2.793-6.238-6.25v-12.642c0-2.832 1.853-5.312 4.638-6.022 2.719-.709 5.621.411 7.031 2.899.482.86.189 1.898-.675 2.453-.847.479-1.922.189-2.404-.666-.639-1.038-1.863-1.562-3.014-1.231-1.194.305-2.007 1.379-2.007 2.567v12.642c0 1.48 1.218 2.682 2.668 2.682 1.494 0 2.676-1.201 2.676-2.682v-4.166h-1.933c-1.004 0-1.78-.782-1.78-1.786 0-1 .776-1.782 1.78-1.782h3.718c1.01 0 1.787.782 1.787 1.782"/><path d="m158.069 23.796v5.952c0 3.457-2.792 6.25-6.247 6.25-3.406 0-6.238-2.793-6.238-6.25v-12.642c0-2.832 1.853-5.312 4.638-6.022 2.719-.709 5.621.411 7.031 2.899.482.86.189 1.898-.675 2.453-.847.479-1.922.189-2.404-.666-.639-1.038-1.863-1.562-3.014-1.231-1.194.305-2.007 1.379-2.007 2.567v12.642c0 1.48 1.218 2.682 2.668 2.682 1.494 0 2.676-1.201 2.676-2.682v-4.166h-1.933c-1.004 0-1.78-.782-1.78-1.786 0-1 .776-1.782 1.78-1.782h3.718c1.01 0 1.787.782 1.787 1.782z"/><path d="m165.718 11.01h7.441c.998 0 1.778.781 1.778 1.784 0 1.008-.781 1.792-1.778 1.792h-5.653v6.683h4.908c.998 0 1.773.786 1.773 1.787 0 1.005-.775 1.782-1.773 1.782h-4.908v7.438h5.653c.998 0 1.778.78 1.778 1.786 0 1.005-.781 1.78-1.778 1.78h-7.441c-.999 0-1.786-.775-1.786-1.78v-21.268c.001-1.003.787-1.784 1.786-1.784"/><path d="m165.718 11.01h7.441c.998 0 1.778.781 1.778 1.784 0 1.008-.781 1.792-1.778 1.792h-5.653v6.683h4.908c.998 0 1.773.786 1.773 1.787 0 1.005-.775 1.782-1.773 1.782h-4.908v7.438h5.653c.998 0 1.778.78 1.778 1.786 0 1.005-.781 1.78-1.778 1.78h-7.441c-.999 0-1.786-.775-1.786-1.78v-21.268c.001-1.003.787-1.784 1.786-1.784z"/><path d="m189.668 24.872 3.23 8.709c.411.929-.111 1.97-1.042 2.302-.922.335-1.896-.11-2.299-1.045l-3.47-9.256h-1.998v8.626c0 1.012-.783 1.79-1.79 1.79-1.001 0-1.784-.778-1.784-1.79v-21.42c0-.994.783-1.778 1.784-1.778h4.462c3.463 0 6.244 2.792 6.244 6.242v2.086c0 2.411-1.297 4.502-3.337 5.534m-2.906-2.858c1.481 0 2.677-1.189 2.677-2.676v-2.086c0-1.481-1.196-2.67-2.677-2.67h-2.672v7.432z"/><path d="m189.668 24.872 3.23 8.709c.411.929-.111 1.97-1.042 2.302-.922.335-1.896-.11-2.299-1.045l-3.47-9.256h-1.998v8.626c0 1.012-.783 1.79-1.79 1.79-1.001 0-1.784-.778-1.784-1.79v-21.42c0-.994.783-1.778 1.784-1.778h4.462c3.463 0 6.244 2.792 6.244 6.242v2.086c0 2.411-1.297 4.502-3.337 5.534zm-2.906-2.858c1.481 0 2.677-1.189 2.677-2.676v-2.086c0-1.481-1.196-2.67-2.677-2.67h-2.672v7.432z"/><path d="m206.88 29.781c.084-.855-.181-1.595-.777-2.225l-5.95-6.095c-1.294-1.315-1.898-3.061-1.747-4.832.148-1.786.998-3.423 2.456-4.501 1.447-1.088 3.27-1.496 5.015-1.158 1.749.411 3.266 1.409 4.165 3.013.48.86.187 1.89-.665 2.457-.854.478-1.932.189-2.413-.67-.411-.675-1.009-1.111-1.792-1.293-.779-.155-1.524.028-2.154.515-.63.479-1.001 1.114-1.041 1.926-.062.78.188 1.483.74 2.052l5.919 6.099c1.294 1.327 1.969 3.154 1.824 4.979-.157 1.894-1.083 3.495-2.531 4.646-1.49 1.152-3.348 1.525-5.176 1.196-1.815-.413-3.374-1.492-4.271-3.085-.56-.863-.227-1.973.631-2.454.858-.482 1.899-.188 2.456.664.41.698 1.038 1.194 1.9 1.368.85.161 1.635-.024 2.298-.553.707-.484 1.013-1.189 1.113-2.049"/><path d="m206.88 29.781c.084-.855-.181-1.595-.777-2.225l-5.95-6.095c-1.294-1.315-1.898-3.061-1.747-4.832.148-1.786.998-3.423 2.456-4.501 1.447-1.088 3.27-1.496 5.015-1.158 1.749.411 3.266 1.409 4.165 3.013.48.86.187 1.89-.665 2.457-.854.478-1.932.189-2.413-.67-.411-.675-1.009-1.111-1.792-1.293-.779-.155-1.524.028-2.154.515-.63.479-1.001 1.114-1.041 1.926-.062.78.188 1.483.74 2.052l5.919 6.099c1.294 1.327 1.969 3.154 1.824 4.979-.157 1.894-1.083 3.495-2.531 4.646-1.49 1.152-3.348 1.525-5.176 1.196-1.815-.413-3.374-1.492-4.271-3.085-.56-.863-.227-1.973.631-2.454.858-.482 1.899-.188 2.456.664.41.698 1.038 1.194 1.9 1.368.85.161 1.635-.024 2.298-.553.707-.484 1.013-1.189 1.113-2.049z"/><path d="m238.457 23.796v5.952c0 3.457-2.792 6.25-6.249 6.25-3.422 0-6.248-2.793-6.248-6.25v-12.642c0-2.832 1.867-5.312 4.649-6.022 2.71-.709 5.606.411 7.027 2.899.484.86.182 1.898-.667 2.453-.855.479-1.933.189-2.416-.666-.64-1.038-1.864-1.562-3.016-1.231-1.185.305-2.004 1.379-2.004 2.567v12.642c0 1.48 1.222 2.682 2.674 2.682 1.486 0 2.674-1.201 2.674-2.682v-4.166h-1.93c-1.008 0-1.787-.782-1.787-1.786 0-1 .779-1.782 1.787-1.782h3.719c1.005 0 1.787.782 1.787 1.782"/><path d="m238.457 23.796v5.952c0 3.457-2.792 6.25-6.249 6.25-3.422 0-6.248-2.793-6.248-6.25v-12.642c0-2.832 1.867-5.312 4.649-6.022 2.71-.709 5.606.411 7.027 2.899.484.86.182 1.898-.667 2.453-.855.479-1.933.189-2.416-.666-.64-1.038-1.864-1.562-3.016-1.231-1.185.305-2.004 1.379-2.004 2.567v12.642c0 1.48 1.222 2.682 2.674 2.682 1.486 0 2.674-1.201 2.674-2.682v-4.166h-1.93c-1.008 0-1.787-.782-1.787-1.786 0-1 .779-1.782 1.787-1.782h3.719c1.005 0 1.787.782 1.787 1.782z"/><path d="m244.317 34.208v-21.559c0-1.005.774-1.798 1.775-1.798 1.019 0 1.793.793 1.793 1.798v21.559c0 1.012-.775 1.79-1.793 1.79-1.001 0-1.775-.778-1.775-1.79"/><path d="m244.317 34.208v-21.559c0-1.005.774-1.798 1.775-1.798 1.019 0 1.793.793 1.793 1.798v21.559c0 1.012-.775 1.79-1.793 1.79-1.001 0-1.775-.778-1.775-1.79z"/><path d="m263.311 24.872 3.244 8.709c.408.929-.113 1.97-1.045 2.302-.933.335-1.888-.11-2.309-1.045l-3.457-9.256h-2.01v8.626c0 1.012-.78 1.79-1.787 1.79-.998 0-1.781-.778-1.781-1.79v-21.42c0-.994.783-1.778 1.781-1.778h4.472c3.459 0 6.247 2.792 6.247 6.242v2.086c0 2.411-1.299 4.502-3.355 5.534m-2.892-2.858c1.493 0 2.678-1.189 2.678-2.676v-2.086c0-1.481-1.186-2.67-2.678-2.67h-2.685v7.432z"/><path d="m263.311 24.872 3.244 8.709c.408.929-.113 1.97-1.045 2.302-.933.335-1.888-.11-2.309-1.045l-3.457-9.256h-2.01v8.626c0 1.012-.78 1.79-1.787 1.79-.998 0-1.781-.778-1.781-1.79v-21.42c0-.994.783-1.778 1.781-1.778h4.472c3.459 0 6.247 2.792 6.247 6.242v2.086c0 2.411-1.299 4.502-3.355 5.534zm-2.892-2.858c1.493 0 2.678-1.189 2.678-2.676v-2.086c0-1.481-1.186-2.67-2.678-2.67h-2.685v7.432z"/><path d="m272.4 34.062v-21.413c0-1.005.783-1.798 1.791-1.798 1.002 0 1.781.793 1.781 1.798v19.627h5.648c1.004 0 1.784.778 1.784 1.786 0 1.005-.78 1.782-1.784 1.782h-7.43c-1.006.001-1.79-.777-1.79-1.782"/><path d="m272.4 34.062v-21.413c0-1.005.783-1.798 1.791-1.798 1.002 0 1.781.793 1.781 1.798v19.627h5.648c1.004 0 1.784.778 1.784 1.786 0 1.005-.78 1.782-1.784 1.782h-7.43c-1.006.001-1.79-.777-1.79-1.782z"/><path d="m285.627 14.582v-.146c-.706-.265-1.191-.897-1.191-1.642 0-.93.706-1.671 1.711-1.671h1.189c.926 0 1.672.741 1.672 1.671v1.788c0 1.481-.893 2.789-2.229 3.341-.863.41-1.857-.035-2.202-.889-.401-.89.04-1.82.902-2.23.107-.033.148-.118.148-.222"/><path d="m285.627 14.582v-.146c-.706-.265-1.191-.897-1.191-1.642 0-.93.706-1.671 1.711-1.671h1.189c.926 0 1.672.741 1.672 1.671v1.788c0 1.481-.893 2.789-2.229 3.341-.863.41-1.857-.035-2.202-.889-.401-.89.04-1.82.902-2.23.107-.033.148-.118.148-.222z"/><path d="m302.895 29.781c.077-.855-.182-1.595-.785-2.225l-5.945-6.095c-1.304-1.315-1.892-3.061-1.746-4.832.143-1.786.999-3.423 2.453-4.501 1.444-1.088 3.268-1.496 5.017-1.158 1.745.411 3.272 1.409 4.163 3.013.49.86.187 1.89-.664 2.457-.855.478-1.936.189-2.415-.67-.413-.675-1.009-1.111-1.794-1.293-.775-.155-1.52.028-2.148.515-.635.479-1.005 1.114-1.038 1.926-.081.78.188 1.483.735 2.052l5.914 6.099c1.303 1.327 1.972 3.154 1.816 4.979-.148 1.894-1.07 3.495-2.52 4.646-1.488 1.152-3.354 1.525-5.174 1.196-1.815-.413-3.381-1.492-4.27-3.085-.563-.863-.222-1.973.633-2.454.848-.482 1.896-.188 2.453.664.411.698 1.035 1.194 1.887 1.368.861.161 1.643-.024 2.304-.553.711-.484 1.008-1.189 1.124-2.049"/><path d="m302.895 29.781c.077-.855-.182-1.595-.785-2.225l-5.945-6.095c-1.304-1.315-1.892-3.061-1.746-4.832.143-1.786.999-3.423 2.453-4.501 1.444-1.088 3.268-1.496 5.017-1.158 1.745.411 3.272 1.409 4.163 3.013.49.86.187 1.89-.664 2.457-.855.478-1.936.189-2.415-.67-.413-.675-1.009-1.111-1.794-1.293-.775-.155-1.52.028-2.148.515-.635.479-1.005 1.114-1.038 1.926-.081.78.188 1.483.735 2.052l5.914 6.099c1.303 1.327 1.972 3.154 1.816 4.979-.148 1.894-1.07 3.495-2.52 4.646-1.488 1.152-3.354 1.525-5.174 1.196-1.815-.413-3.381-1.492-4.27-3.085-.563-.863-.222-1.973.633-2.454.848-.482 1.896-.188 2.453.664.411.698 1.035 1.194 1.887 1.368.861.161 1.643-.024 2.304-.553.711-.484 1.008-1.189 1.124-2.049z"/><path d="m322.422 34.062v-21.268c0-1.008.771-1.784 1.777-1.784h7.438c1.006 0 1.781.776 1.781 1.784s-.775 1.788-1.781 1.788h-5.648v6.687h4.898c1.01 0 1.793.786 1.793 1.787 0 1.005-.783 1.782-1.793 1.782h-4.898v9.225c0 1.005-.783 1.782-1.789 1.782-1.008 0-1.778-.778-1.778-1.783"/><path d="m322.422 34.062v-21.268c0-1.008.771-1.784 1.777-1.784h7.438c1.006 0 1.781.776 1.781 1.784s-.775 1.788-1.781 1.788h-5.648v6.687h4.898c1.01 0 1.793.786 1.793 1.787 0 1.005-.783 1.782-1.793 1.782h-4.898v9.225c0 1.005-.783 1.782-1.789 1.782-1.008 0-1.778-.778-1.778-1.783z"/><path d="m340.635 11.01h7.438c1.014 0 1.785.781 1.785 1.784 0 1.008-.771 1.792-1.785 1.792h-5.656v6.683h4.912c1.002 0 1.791.786 1.791 1.787 0 1.005-.789 1.782-1.791 1.782h-4.912v7.438h5.656c1.014 0 1.785.78 1.785 1.786 0 1.005-.771 1.78-1.785 1.78h-7.438c-.996 0-1.787-.775-1.787-1.78v-21.268c0-1.003.791-1.784 1.787-1.784"/><path d="m340.635 11.01h7.438c1.014 0 1.785.781 1.785 1.784 0 1.008-.771 1.792-1.785 1.792h-5.656v6.683h4.912c1.002 0 1.791.786 1.791 1.787 0 1.005-.789 1.782-1.791 1.782h-4.912v7.438h5.656c1.014 0 1.785.78 1.785 1.786 0 1.005-.771 1.78-1.785 1.78h-7.438c-.996 0-1.787-.775-1.787-1.78v-21.268c0-1.003.791-1.784 1.787-1.784z"/><path d="m363.509 29.781c.067-.855-.188-1.595-.782-2.225l-5.945-6.095c-1.301-1.315-1.902-3.061-1.752-4.832.159-1.786 1.008-3.423 2.453-4.501 1.443-1.088 3.279-1.496 5.023-1.158 1.745.411 3.273 1.409 4.161 3.013.485.86.188 1.89-.67 2.457-.849.478-1.931.189-2.421-.67-.402-.675-.992-1.111-1.777-1.293-.78-.155-1.522.028-2.158.515-.632.479-1.007 1.114-1.035 1.926-.074.78.181 1.483.736 2.052l5.915 6.099c1.299 1.327 1.966 3.154 1.819 4.979-.143 1.894-1.079 3.495-2.529 4.646-1.486 1.152-3.342 1.525-5.166 1.196-1.824-.413-3.377-1.492-4.277-3.085-.557-.863-.225-1.973.635-2.454.854-.482 1.896-.188 2.454.664.413.698 1.044 1.194 1.896 1.368.86.161 1.635-.024 2.304-.553.705-.484 1.003-1.189 1.116-2.049"/><path d="m363.509 29.781c.067-.855-.188-1.595-.782-2.225l-5.945-6.095c-1.301-1.315-1.902-3.061-1.752-4.832.159-1.786 1.008-3.423 2.453-4.501 1.443-1.088 3.279-1.496 5.023-1.158 1.745.411 3.273 1.409 4.161 3.013.485.86.188 1.89-.67 2.457-.849.478-1.931.189-2.421-.67-.402-.675-.992-1.111-1.777-1.293-.78-.155-1.522.028-2.158.515-.632.479-1.007 1.114-1.035 1.926-.074.78.181 1.483.736 2.052l5.915 6.099c1.299 1.327 1.966 3.154 1.819 4.979-.143 1.894-1.079 3.495-2.529 4.646-1.486 1.152-3.342 1.525-5.166 1.196-1.824-.413-3.377-1.492-4.277-3.085-.557-.863-.225-1.973.635-2.454.854-.482 1.896-.188 2.454.664.413.698 1.044 1.194 1.896 1.368.86.161 1.635-.024 2.304-.553.705-.484 1.003-1.189 1.116-2.049z"/><path d="m385.047 12.794c0 1.008-.783 1.788-1.785 1.788h-3.047v19.626c0 1.012-.778 1.79-1.785 1.79-1.002 0-1.787-.778-1.787-1.79v-19.626h-3.043c-1.008 0-1.791-.78-1.791-1.788 0-1.003.783-1.784 1.791-1.784h9.662c1.002 0 1.785.781 1.785 1.784"/><path d="m385.047 12.794c0 1.008-.783 1.788-1.785 1.788h-3.047v19.626c0 1.012-.778 1.79-1.785 1.79-1.002 0-1.787-.778-1.787-1.79v-19.626h-3.043c-1.008 0-1.791-.78-1.791-1.788 0-1.003.783-1.784 1.791-1.784h9.662c1.002 0 1.785.781 1.785 1.784z"/><path d="m401.34 35.92c-1.007.261-1.928-.296-2.193-1.228-.105-.296-.189-.669-.291-1.081-.189-.706-.492-1.675-.79-2.825h-6.315c-.338 1.15-.604 2.119-.786 2.825-.104.412-.186.785-.298 1.081-.256.932-1.186 1.488-2.191 1.228-.926-.26-1.484-1.185-1.225-2.195l5.947-21.571c.184-.771.858-1.302 1.712-1.302.856 0 1.518.53 1.708 1.302l5.951 21.571c.259 1.01-.305 1.935-1.229 2.195m-6.431-16.544c-.71 2.421-1.448 5.273-2.154 7.842h4.31c-.711-2.569-1.44-5.421-2.156-7.842"/><path d="m401.34 35.92c-1.007.261-1.928-.296-2.193-1.228-.105-.296-.189-.669-.291-1.081-.189-.706-.492-1.675-.79-2.825h-6.315c-.338 1.15-.604 2.119-.786 2.825-.104.412-.186.785-.298 1.081-.256.932-1.186 1.488-2.191 1.228-.926-.26-1.484-1.185-1.225-2.195l5.947-21.571c.184-.771.858-1.302 1.712-1.302.856 0 1.518.53 1.708 1.302l5.951 21.571c.259 1.01-.305 1.935-1.229 2.195zm-6.431-16.544c-.71 2.421-1.448 5.273-2.154 7.842h4.31c-.711-2.569-1.44-5.421-2.156-7.842z"/></g><g fill="#231815"><path d="m130.597 12.794c0 1.008-.77 1.788-1.775 1.788h-3.048v19.626c0 1.012-.785 1.79-1.785 1.79-1.006 0-1.787-.778-1.787-1.79v-19.626h-3.05c-1.002 0-1.785-.78-1.785-1.788 0-1.003.783-1.784 1.785-1.784h9.67c1.005 0 1.775.781 1.775 1.784"/><path d="m136.039 34.208v-21.559c0-1.005.776-1.798 1.783-1.798 1.006 0 1.787.793 1.787 1.798v21.559c0 1.012-.78 1.79-1.787 1.79s-1.783-.778-1.783-1.79"/><path d="m158.069 23.796v5.952c0 3.457-2.792 6.25-6.247 6.25-3.406 0-6.238-2.793-6.238-6.25v-12.642c0-2.832 1.853-5.312 4.638-6.022 2.719-.709 5.621.411 7.031 2.899.482.86.189 1.898-.675 2.453-.847.479-1.922.189-2.404-.666-.639-1.038-1.863-1.562-3.014-1.231-1.194.305-2.007 1.379-2.007 2.567v12.642c0 1.48 1.218 2.682 2.668 2.682 1.494 0 2.676-1.201 2.676-2.682v-4.166h-1.933c-1.004 0-1.78-.782-1.78-1.786 0-1 .776-1.782 1.78-1.782h3.718c1.01 0 1.787.782 1.787 1.782"/><path d="m165.718 11.01h7.441c.998 0 1.778.781 1.778 1.784 0 1.008-.781 1.792-1.778 1.792h-5.653v6.683h4.908c.998 0 1.773.786 1.773 1.787 0 1.005-.775 1.782-1.773 1.782h-4.908v7.438h5.653c.998 0 1.778.78 1.778 1.786 0 1.005-.781 1.78-1.778 1.78h-7.441c-.999 0-1.786-.775-1.786-1.78v-21.268c.001-1.003.787-1.784 1.786-1.784"/><path d="m189.668 24.872 3.23 8.709c.411.929-.111 1.97-1.042 2.302-.922.335-1.896-.11-2.299-1.045l-3.47-9.256h-1.998v8.626c0 1.012-.783 1.79-1.79 1.79-1.001 0-1.784-.778-1.784-1.79v-21.42c0-.994.783-1.778 1.784-1.778h4.462c3.463 0 6.244 2.792 6.244 6.242v2.086c0 2.411-1.297 4.502-3.337 5.534m-2.906-2.858c1.481 0 2.677-1.189 2.677-2.676v-2.086c0-1.481-1.196-2.67-2.677-2.67h-2.672v7.432z"/><path d="m206.88 29.781c.084-.855-.181-1.595-.777-2.225l-5.95-6.095c-1.294-1.315-1.898-3.061-1.747-4.832.148-1.786.998-3.423 2.456-4.501 1.447-1.088 3.27-1.496 5.015-1.158 1.749.411 3.266 1.409 4.165 3.013.48.86.187 1.89-.665 2.457-.854.478-1.932.189-2.413-.67-.411-.675-1.009-1.111-1.792-1.293-.779-.155-1.524.028-2.154.515-.63.479-1.001 1.114-1.041 1.926-.062.78.188 1.483.74 2.052l5.919 6.099c1.294 1.327 1.969 3.154 1.824 4.979-.157 1.894-1.083 3.495-2.531 4.646-1.49 1.152-3.348 1.525-5.176 1.196-1.815-.413-3.374-1.492-4.271-3.085-.56-.863-.227-1.973.631-2.454.858-.482 1.899-.188 2.456.664.41.698 1.038 1.194 1.9 1.368.85.161 1.635-.024 2.298-.553.707-.484 1.013-1.189 1.113-2.049"/><path d="m238.457 23.796v5.952c0 3.457-2.792 6.25-6.249 6.25-3.422 0-6.248-2.793-6.248-6.25v-12.642c0-2.832 1.867-5.312 4.649-6.022 2.71-.709 5.606.411 7.027 2.899.484.86.182 1.898-.667 2.453-.855.479-1.933.189-2.416-.666-.64-1.038-1.864-1.562-3.016-1.231-1.185.305-2.004 1.379-2.004 2.567v12.642c0 1.48 1.222 2.682 2.674 2.682 1.486 0 2.674-1.201 2.674-2.682v-4.166h-1.93c-1.008 0-1.787-.782-1.787-1.786 0-1 .779-1.782 1.787-1.782h3.719c1.005 0 1.787.782 1.787 1.782"/><path d="m244.317 34.208v-21.559c0-1.005.774-1.798 1.775-1.798 1.019 0 1.793.793 1.793 1.798v21.559c0 1.012-.775 1.79-1.793 1.79-1.001 0-1.775-.778-1.775-1.79"/><path d="m263.311 24.872 3.244 8.709c.408.929-.113 1.97-1.045 2.302-.933.335-1.888-.11-2.309-1.045l-3.457-9.256h-2.01v8.626c0 1.012-.78 1.79-1.787 1.79-.998 0-1.781-.778-1.781-1.79v-21.42c0-.994.783-1.778 1.781-1.778h4.472c3.459 0 6.247 2.792 6.247 6.242v2.086c0 2.411-1.299 4.502-3.355 5.534m-2.892-2.858c1.493 0 2.678-1.189 2.678-2.676v-2.086c0-1.481-1.186-2.67-2.678-2.67h-2.685v7.432z"/><path d="m272.4 34.062v-21.413c0-1.005.783-1.798 1.791-1.798 1.002 0 1.781.793 1.781 1.798v19.627h5.648c1.004 0 1.784.778 1.784 1.786 0 1.005-.78 1.782-1.784 1.782h-7.43c-1.006.001-1.79-.777-1.79-1.782"/><path d="m285.627 14.582v-.146c-.706-.265-1.191-.897-1.191-1.642 0-.93.706-1.671 1.711-1.671h1.189c.926 0 1.672.741 1.672 1.671v1.788c0 1.481-.893 2.789-2.229 3.341-.863.41-1.857-.035-2.202-.889-.401-.89.04-1.82.902-2.23.107-.033.148-.118.148-.222"/><path d="m302.895 29.781c.077-.855-.182-1.595-.785-2.225l-5.945-6.095c-1.304-1.315-1.892-3.061-1.746-4.832.143-1.786.999-3.423 2.453-4.501 1.444-1.088 3.268-1.496 5.017-1.158 1.745.411 3.272 1.409 4.163 3.013.49.86.187 1.89-.664 2.457-.855.478-1.936.189-2.415-.67-.413-.675-1.009-1.111-1.794-1.293-.775-.155-1.52.028-2.148.515-.635.479-1.005 1.114-1.038 1.926-.081.78.188 1.483.735 2.052l5.914 6.099c1.303 1.327 1.972 3.154 1.816 4.979-.148 1.894-1.07 3.495-2.52 4.646-1.488 1.152-3.354 1.525-5.174 1.196-1.815-.413-3.381-1.492-4.27-3.085-.563-.863-.222-1.973.633-2.454.848-.482 1.896-.188 2.453.664.411.698 1.035 1.194 1.887 1.368.861.161 1.643-.024 2.304-.553.711-.484 1.008-1.189 1.124-2.049"/><path d="m322.422 34.062v-21.268c0-1.008.771-1.784 1.777-1.784h7.438c1.006 0 1.781.776 1.781 1.784s-.775 1.788-1.781 1.788h-5.648v6.687h4.898c1.01 0 1.793.786 1.793 1.787 0 1.005-.783 1.782-1.793 1.782h-4.898v9.225c0 1.005-.783 1.782-1.789 1.782-1.008 0-1.778-.778-1.778-1.783"/><path d="m340.635 11.01h7.438c1.014 0 1.785.781 1.785 1.784 0 1.008-.771 1.792-1.785 1.792h-5.656v6.683h4.912c1.002 0 1.791.786 1.791 1.787 0 1.005-.789 1.782-1.791 1.782h-4.912v7.438h5.656c1.014 0 1.785.78 1.785 1.786 0 1.005-.771 1.78-1.785 1.78h-7.438c-.996 0-1.787-.775-1.787-1.78v-21.268c0-1.003.791-1.784 1.787-1.784"/><path d="m363.509 29.781c.067-.855-.188-1.595-.782-2.225l-5.945-6.095c-1.301-1.315-1.902-3.061-1.752-4.832.159-1.786 1.008-3.423 2.453-4.501 1.443-1.088 3.279-1.496 5.023-1.158 1.745.411 3.273 1.409 4.161 3.013.485.86.188 1.89-.67 2.457-.849.478-1.931.189-2.421-.67-.402-.675-.992-1.111-1.777-1.293-.78-.155-1.522.028-2.158.515-.632.479-1.007 1.114-1.035 1.926-.074.78.181 1.483.736 2.052l5.915 6.099c1.299 1.327 1.966 3.154 1.819 4.979-.143 1.894-1.079 3.495-2.529 4.646-1.486 1.152-3.342 1.525-5.166 1.196-1.824-.413-3.377-1.492-4.277-3.085-.557-.863-.225-1.973.635-2.454.854-.482 1.896-.188 2.454.664.413.698 1.044 1.194 1.896 1.368.86.161 1.635-.024 2.304-.553.705-.484 1.003-1.189 1.116-2.049"/><path d="m385.047 12.794c0 1.008-.783 1.788-1.785 1.788h-3.047v19.626c0 1.012-.778 1.79-1.785 1.79-1.002 0-1.787-.778-1.787-1.79v-19.626h-3.043c-1.008 0-1.791-.78-1.791-1.788 0-1.003.783-1.784 1.791-1.784h9.662c1.002 0 1.785.781 1.785 1.784"/><path d="m401.34 35.92c-1.007.261-1.928-.296-2.193-1.228-.105-.296-.189-.669-.291-1.081-.189-.706-.492-1.675-.79-2.825h-6.315c-.338 1.15-.604 2.119-.786 2.825-.104.412-.186.785-.298 1.081-.256.932-1.186 1.488-2.191 1.228-.926-.26-1.484-1.185-1.225-2.195l5.947-21.571c.184-.771.858-1.302 1.712-1.302.856 0 1.518.53 1.708 1.302l5.951 21.571c.259 1.01-.305 1.935-1.229 2.195m-6.431-16.544c-.71 2.421-1.448 5.273-2.154 7.842h4.31c-.711-2.569-1.44-5.421-2.156-7.842"/></g></svg>