<svg enable-background="new 0 0 85 35" viewBox="0 0 85 35" xmlns="http://www.w3.org/2000/svg"><g fill="#ffee02"><path d="m11.3 28.3c-.1 0-.2 0-.2 0h-5.5c-1.1 0-1.9-.3-2.4-.9-.6-.7-.6-1.4-.6-1.7 0-1.8 2.4-2.8 2.9-2.9.2-.1.4-.5.5-.9v-.1l3.7-10.6c-.1.1-.4.3-.6.4l-.1.1-4.1 3.1c-1.4 1.2-2.8.8-3.4.4l-.1-.1-.1-.1c-.8-1.1-.3-2.5.2-3.1 3.3-5.2 5-6.4 5.5-6.6.9-.4 1.7-.5 2.4-.3.9.3 1.2 1 1.3 1.1l.1.1v.1c0 .1 0 .2.1.2h6.1.3l.5-.5c1.6-1.4 3.1-.8 3.7-.3l.1.1c1.5 1.6 2.3 5.5 2.4 6.1.6 2.3.6 3.5-.1 4.3-.2.3-.5.4-.8.5-.7.2-1.2.1-1.5 0-.6-.2-.9-.7-1.1-1-1-1.2-2.7-3.7-2.8-3.8l-.1-.1c-.2-.3-.4-.4-.4-.4l-4.2 11.5v.1c2.1.8 2.2 2.2 2.1 2.7 0 .6-.3 1.2-.7 1.7-1 .8-2.5.9-3.1.9zm-6.4-2.4c.1.1.3.2.7.2h5.6c.5 0 1.3-.1 1.5-.3 0 0 0 0 0-.1v-.1c-.1-.1-.3-.3-.8-.5-.3-.1-.7-.3-1-.7-.4-.6-.4-1.3-.1-2.3l4.2-11.5c.2-.8.9-1.5 1.9-1.5.7-.1 1.9.2 2.6 1.6.2.3 1.6 2.3 2.4 3.4 0-.4-.1-.9-.3-1.6v-.1c-.3-1.4-1-4-1.7-4.9-.1 0-.3 0-.6.3l-.2.2c-.1 0-.1.1-.1.2-.5.6-1.3.7-2 .7h-7.2l-.4-.4c-.1-.1-.5-.6-.8-1.4-.1 0-.3 0-.5.2h-.1c-.2.1-1.6 1.1-4.6 5.8h.1l4.1-3.1c.4-.3 1.2-1 2.1-1h1c.4 0 .9.1 1.3.5.2.2.5.7.2 1.5l-4 11.6c-.1.3-.6 1.9-1.9 2.4-.6.2-1.3.6-1.4.8z"/><path d="m26.3 27.8c-.5 0-.9 0-1.1 0-2.5-.1-4-.5-4.7-1.5-.3-.5-.4-.9-.3-1.2 0-1.3 1.3-2.2 2.5-2.4l1.4-4.1c-.9-.4-1.3-1.2-1.3-1.8-.2-1.3.9-2.1 2-2.4 1.7-.4 3.8-.3 3.9-.3h.1c1 .1 1.7.5 2.1 1.2.3.6.3 1.2.1 1.7l-2 5.9c1.7.8 1.8 2 1.8 2.4 0 .6-.2 1.1-.7 1.5-1 .9-2.6 1-3.8 1zm-3.7-2.7c.4.1 1.1.3 2.7.4h.1c1.2.1 2.6 0 3-.3-.1-.1-.3-.2-.7-.4-.4-.1-.7-.3-.9-.7-.3-.5-.3-1.1-.1-1.7l2-6c-.1 0-.2 0-.3-.1-.2 0-1.8-.1-3 .2h.1c.4 0 .8.3 1 .7.4.7.1 1.4 0 1.7l-1.4 4.3c-.1.7-.7 1.5-1.7 1.7-.4.1-.6.1-.8.2z"/><path d="m28.4 15.3c-2.5 0-3.6-1.5-3.6-2.9s1.1-2.9 3.6-2.9 3.6 1.5 3.6 2.9c.1 1.4-1.1 2.9-3.6 2.9zm0-3.6c-.8 0-1.4.3-1.4.7s.6.7 1.4.7 1.4-.3 1.4-.7-.6-.7-1.4-.7z"/><path d="m34.5 33.9c-.2 0-.4 0-.5 0-4.3 0-5.7-2.8-5.9-4.2-.1-1.3.4-2 .8-2.5.9-1 2.2-1 2.3-1 2.3 0 3.2 1.6 3.3 2.7 0 .3 0 .5-.1.8 1.2-.5 2-1.8 2.5-2.7-.2 0-.4 0-.7 0-2.9 0-4.3-2-4.5-2.3-2.5-4.1.7-8 .8-8.1 1.5-1.8 3.5-2.8 5.7-2.8 1.8 0 3.2.7 3.4.8.1 0 .4-.2.5-.2.6-.4 1.2-.6 1.9-.6.8 0 1.4.3 1.6.4 1.8 1 1.5 3.2 1.1 4.2-1.7 5.6-3 8.3-3.2 8.6-2.7 6.4-7.6 6.9-9 6.9zm2.8-10.8s.2.1.4.1.7 0 1-1 .9-2.1 1.2-3.7c0-.1 0-.3-.3-.4h-.1c-.8 0-1.6.9-2.1 2.4-.3.8-.6 2.2-.3 2.7 0 0 0 0 .1.1z"/><path d="m52.2 28c-.2 0-.3 0-.4 0-4.8-.2-6.1-3.6-6.1-3.8-1.5-4.1 1.2-6.9 1.6-7.3 2.1-2.3 4.6-2.7 6.4-2.7 1.4 0 2.3.3 2.4.3 1.7.5 2.9 1.4 3.5 2.7.7 1.3.4 2.6.2 3.1-.1.9-.7 1.6-1.7 2.1.4.3.6.8.7 1.2 0 .6-.3 1.1-.5 1.3-2.1 2.9-5.2 3.1-6.1 3.1zm-.7-5.2c0 .1 0 .2.1.3.2.3.6.5.6.5.2.1.5.1.7.1 1 0 1.9-.4 2.5-.8-.4 0-.8 0-1.3 0-1 0-1.9 0-2.6-.1zm1.3-4c.7 0 1.3-.1 1.7-.2-.1-.4-.3-.5-.4-.6h-.1s-.2-.1-.3-.1-.3 0-.5.3c-.2.2-.4.5-.5.7 0-.1 0-.1.1-.1z"/><path d="m63.2 28.3c-.4 0-.7 0-1 0-2.3 0-3.6-.3-4.3-1.2-.4-.4-.4-.9-.4-1.3.1-1.1 1-1.8 1.9-2 .2-.1.3-.2.3-.2v-.1l1.1-3.1c-1.5-.3-2-1.6-2.1-2.5 0-2.7 2.6-3.5 4-3.5 1.7 0 2.7.8 3.2 1.6 1.8-1.2 3-1.2 3.4-1.1 2.2.2 3 1.9 2.9 3.1v.1c-.1 2.3-1.9 3.2-3.1 3.2-1 0-1.7-.4-2.2-.8l-1.4 3.8c1.3.6 1.5 1.7 1.4 2.3-.1.4-.3.8-.6 1.1-.4.5-2 .6-3.1.6zm-.9-2.3c.8.1 1.7 0 2.3-.1-.6-.3-.9-.8-1-1.1-.2-.5 0-.9.1-1.1l1.7-4.5c.1-.1.1-.2.2-.4-.1 0-.1 0-.2 0-.4-.1-.9-.5-.9-1.4 0-.2-.3-.7-1.4-.7-1.6.1-1.8 1.1-1.8 1.2 0 .3.2.3.3.3h.1l.2-.1c.7-.4 1.3-.2 1.6.1.2.1.6.7.3 1.5l-1.7 4.7c-.1.3-.5 1.2-1.6 1.6zm-.8-7.2.9.4zm7.2-.4c.1.3.3.5.7.5.3 0 .7-.2.8-1 0-.5-.3-.8-.9-.8h-.1c-.1 0-.5.1-1 .3.2.2.4.5.5 1z"/><path d="m76.1 27.9c-1.4 0-3.1-.3-4.6-1.2-.3-.2-2.1-1.3-2.1-3.1 0-.1 0-1.1.8-2 .3-.3.8-.6 1.3-.8-.3-.5-.6-1.1-.6-1.8 0-.3 0-1.6.9-2.6 0 0 0-.1.1-.1l.1-.1c1.8-2.1 5.3-2.1 5.7-2.1 4.6.1 5.9 1.8 6.1 2.4.2.3.4.8.3 1.6-.1.9-.7 1.7-1.7 2.1.8.5 1.7 1.5 1.6 3 0 .7-.2 3.2-4.6 4.3-.3 0-1.6.4-3.3.4zm3.3-3.4c-.2.3-.4.6-.6.8 2.3-.6 2.9-1.5 2.9-1.9v-.2-.1c.1-.7-.7-1.1-.7-1.1l-.2-.1c-.5-.3-2.5-1-3.7-1.4-2.1-.7-2.4-2-2.3-2.7 0-.4.1-.7.4-1-.6.2-1.1.5-1.4.9l-.1.1c-.4.4-.4 1-.4 1v.1c0 .7.6 1.1.6 1.1h.1s1.1.8 3.3 1.3c1.1.3 1.9.8 2.2 1.6.2.6.1 1.2-.1 1.6zm-7.8-.9c0 .4.7.9.9 1.1h.1c.1.1.3.2.4.3-.5-.5-.4-1-.4-1.2.1-.4.3-.6.6-.8v-.1c-.1 0-.4-.1-1 0-.3.1-.5.2-.5.3s-.1.4-.1.4zm3.9.1c.2 0 .4.1.7.1h.1c.2 0 .6 0 .8-.1-.1 0-.2-.1-.4-.1-.4-.1-.8-.2-1.1-.3 0 .1-.1.2-.1.4zm1.6-5.7c.1.1.3.2.7.4 0-.2 0-.4 0-.6-.3 0-.5.1-.7.2zm3 .1c.2.1.5.2.9.1.6-.1.8-.3.8-.4v-.1c0-.1 0-.1 0-.2l-.1-.1c-.1-.1-.3-.3-.8-.5 0 .3-.1.5-.2.7l-.2.3-.3.1c0 .1-.1.1-.1.1z"/><path d="m54 10.2c-.7 0-1.1-.4-1.3-.7l-.1-.1-.8-.9c0 .2-.1.6-.4 1-.2.2-.6.5-1.3.5h-1.9c-.6 0-1-.3-1.3-.5-.4-.4-.4-1-.4-1.1 0-.5.3-.9.6-1.2v-3.2c-.5-.3-.8-1-.6-1.7.2-.6.8-1.2 1.7-1.1h.9c.3 0 .8 0 1.2.4v.1l.8.9s0 0 0-.1c0-.3.2-.6.4-.8s.6-.5 1.3-.5h1.8c.7 0 1.1.3 1.3.5s.3.5.4.7c.1.6-.1 1.2-.5 1.5v4.6c0 .2 0 .7-.4 1.1-.3.3-.7.6-1.4.6zm-4.6-6.2v.4c.1-.1.2-.1.2-.2z"/><path d="m81.4 10.2c-.6 0-1-.3-1.4-.7l-.8-.9c0 .2-.1.6-.4 1-.2.2-.6.5-1.2.5h-1.9c-.6 0-1-.3-1.3-.5-.4-.4-.4-1-.4-1.1 0-.5.3-.9.6-1.1v-3.4c-.5-.3-.8-.9-.6-1.7v-.1c.2-.6.8-1.1 1.7-1.1h.9c.3 0 .8 0 1.2.4l.8.9v-.1c0-.3.2-.5.4-.8.2-.2.6-.5 1.3-.5h1.8c.7 0 1.1.3 1.3.5s.3.5.4.8c.1.6-.2 1.2-.6 1.5v4.6c0 .2 0 .7-.4 1.1-.3.4-.7.7-1.4.7zm-4.6-6.2v.4c.1-.1.1-.1.2-.2z"/><path d="m39.4 10h-1.9c-.6 0-1-.3-1.3-.5-.2.2-.6.5-1.2.5h-1.9c-.6 0-1-.3-1.2-.5-.4-.4-.4-.9-.4-1.1 0-.5.3-.9.6-1.2v-3.2c-.4-.3-.7-.9-.6-1.5 0-.3.2-.6.4-.8s.6-.5 1.3-.5h1.8c.7 0 1.1.3 1.3.5.2-.2.6-.5 1.3-.5h1.9c1 0 1.6.6 1.7 1.3.1.6-.2 1.2-.6 1.5v3.2c.3.2.6.6.6 1.2 0 .2 0 .7-.4 1.1-.3.2-.7.5-1.4.5zm-3.3-2.8c.1.1.1.1.2.2.1-.1.1-.1.2-.2zm-.1-3h.5v-.2c-.1-.1-.2-.1-.2-.2-.1.1-.2.2-.3.2z"/><path d="m69.6 10h-1.9c-.6 0-1-.3-1.2-.5s0 0-.1.1c-.2.2-.6.5-1.2.5h-1.9c-.6 0-1-.3-1.2-.5-.4-.4-.4-1-.4-1.1 0-.5.3-.9.6-1.2v-3.2c-.4-.4-.7-.9-.6-1.6 0-.3.2-.5.4-.8.2-.2.6-.5 1.3-.5h1.9c.7 0 1.1.3 1.3.5.2-.2.6-.5 1.3-.5h1.9c.7 0 1.1.3 1.3.5s.3.5.4.8c.1.6-.2 1.2-.6 1.5v3.2c.3.2.6.6.6 1.2 0 .2 0 .7-.4 1.1-.4.2-.8.5-1.5.5zm-3.3-2.8c.1.1.1.1.2.2.1-.1.1-.1.2-.2zm-.1-3h.5v-.2c-.1-.1-.2-.1-.2-.2-.1.1-.2.2-.3.2z"/><path d="m73.5 10h-1.9c-.6 0-1-.3-1.2-.5-.4-.4-.4-1-.4-1.1 0-.5.3-.9.6-1.2v-3.2c-.5-.3-.8-1-.6-1.7.1-.6.7-1.2 1.6-1.2h1.9c.9 0 1.5.6 1.6 1.2.2.8-.1 1.4-.6 1.7v3.2c.3.3.6.7.6 1.2 0 .2 0 .7-.4 1.1-.2.2-.6.5-1.2.5z"/><path d="m45.3 10c-.6 0-1-.3-1.3-.5-.1-.1-.2-.2-.2-.3-.1.1-.1.2-.2.3-.2.2-.6.5-1.2.5h-1.5c-1.1 0-1.7-.8-1.7-1.6 0-.7.4-1.2.8-1.4l2-4.7c.2-.5.7-1 1.5-1h.8c.8 0 1.4.5 1.6 1.1l2 4.8c.4.3.7.7.7 1.3 0 .2 0 .7-.4 1.1-.2.2-.6.5-1.2.5h-1.7z"/><path d="m59.8 10.2c-.2 0-.4 0-.6 0s-.8-.1-2.3-.5c-.2.1-.4.3-.8.4-.5.1-1.1 0-1.5-.4-.4-.3-.5-.8-.5-1.3 0-.3.1-.9.7-1.7.1-.1.3-.4.6-.6-.1-.1-.3-.2-.4-.4-.4-.5-.6-1.1-.6-1.8 0-.8.5-2.2 2.7-2.7.5-.1.8-.1 1.3-.1.1 0 1.1 0 2.2.6.5-.4 1.3-.7 2.1-.2l.1.1h.2c.1.1 1.1 1.1-.1 2.8-.1.2-.3.3-.5.5.6.6 1 1.3.9 2.2 0 .3-.1 1.3-.9 2.1-.6.6-1.5 1-2.6 1z"/></g><path d="m10.2 7.7s-.5-.5-.6-1.2c0 0-.5-1.1-2.1-.3 0 0-1.4.5-5.1 6.3 0 0-.8 1-.2 1.8 0 0 .9.6 2-.4l4.2-3.2s.8-.7 1.3-.7h1.1s.6-.1.4.5l-4 11.6s-.3 1.3-1.2 1.6c0 0-2.2.8-2.2 1.9 0 0-.2 1.5 1.9 1.5h5.5s2.7.1 2.7-1.6c0 0 .3-1-1.7-1.7 0 0-.8 0-.3-1.5l4.2-11.6s.1-.8.9-.7c0 0 1-.2 1.6 1 0 0 1.8 2.7 2.8 3.8 0 0 .4.9 1.4.5 0 0 .9.1 0-3.4 0 0-.7-4.1-2.1-5.6 0 0-.9-.8-2.2.3l-.4.5s.1.3-1.1.3h-6.8" fill="#231815"/><path d="m25.3 18.6-1.5 4.4s-.1.7-.8.8c0 0-1.8.3-1.7 1.4 0 0-.4 1.3 3.9 1.4 0 0 4.4.4 4.4-1.3 0 0 .1-1-1.6-1.5 0 0-.5-.1-.2-1l2-6.2s.5-1.1-1.3-1.3c0 0-1.9-.2-3.5.2 0 0-1.3.3-1.1 1.2 0 0 0 .9 1.4 1-.1.1.3.1 0 .9" fill="#231815"/><path d="m28.4 14.2c1.6 0 2.5-.8 2.5-1.8s-.9-1.8-2.5-1.8-2.5.8-2.5 1.8.9 1.8 2.5 1.8" fill="#231815"/><path d="m40.1 16.8s-2.3-.9-3.7 3c0 0-1.4 3.7.5 4.3 0 0 2 .8 2.9-1.7 0 0 .9-2.2 1.3-4 0 .1.1-1-1-1.6m2.7-1.5c1.2-.8 2.3-.1 2.3-.1 1.4.8.6 2.9.6 2.9-1.8 5.9-3.2 8.5-3.2 8.5-3 6.8-8.5 6.1-8.5 6.1-4.5 0-4.8-3.2-4.8-3.2-.1-2.2 2-2.2 2-2.2 2.1 0 2.2 1.7 2.2 1.7 0 1.2-1.4 1.2-1.4 1.2.6 1.1 2.1.8 2.1.8 3-.7 4.3-4.8 4.3-4.8.3-1-.6-.5-.6-.5-3.7 1-5.1-1.6-5.1-1.6-2.1-3.4.7-6.8.7-6.8 3.3-4.1 7.7-1.8 7.7-1.8.7.5 1.7-.2 1.7-.2z" fill="#231815"/><path d="m55.6 18.4c-.3-1-1-1.3-1-1.3s-1.2-.8-2.3.3c-.7.7-1 1.5-1 1.5s-.5 1.1.4 1c0 0 2.5.3 3.7-.5.4-.3.2-1 .2-1m-3.8 6.3c2.5.7 4.9-1.4 4.9-1.4.6-.3.8-.1.8-.1.5.4.1.9.1.9-2.4 3.1-5.7 2.8-5.7 2.8-4.1-.1-5.1-3-5.1-3-1.4-3.6 1.4-6.1 1.4-6.1 3.2-3.5 7.7-2.1 7.7-2.1 4.1 1.3 3 4.4 3 4.4-.2 2.8-8.3 1.6-8.3 1.6-.9 2.4 1.2 3 1.2 3z" fill="#231815"/><path d="m62.6 19.2-1.7 4.7s-.2.8-1.2 1c0 0-1 .1-1 1 0 0-.3 1.4 3.6 1.3 0 0 3.8.3 3.9-1 0 0 .2-.7-1-1.2-.9-.4-.6-.8-.6-.8l1.6-4.5c.4-.8.8-1.3.8-1.3.5-.5.5.1.5.1s.3 1.4 1.9 1.4c0 0 1.8 0 1.9-2.1 0 0 0-1.8-1.9-2 0 0-1.3-.3-3.6 1.7 0 0-.4.5-.4-.3 0 0-.2-1.8-2.5-1.8 0 0-2.9.1-2.9 2.4 0 0 0 1.5 1.4 1.5 0 0 .7.1.9-.3 0 0 .5-.2.3.2" fill="#231815"/><path d="m71 22.4c-.5.6-.5 1.2-.5 1.2 0 1.3 1.5 2.1 1.5 2.1 3 1.9 7 .7 7 .7 4.1-1 3.8-3.2 3.8-3.2.1-1.5-1.4-2.2-1.4-2.2-.9-.6-4-1.5-4-1.5-1.8-.6-1.6-1.5-1.6-1.5 0-1.3 2.6-1.3 2.6-1.3 1.6 0 1.4.4 1.4.4-.8.3-1 .6-.9 1.2.1.8.9 1.3 2.2 1.1 1.1-.2 1.7-.8 1.8-1.4s-.1-.9-.1-.9-.7-1.7-5.2-1.8c0 0-3.3 0-4.8 1.7 0 0 0 .1-.1.1-.8.8-.7 1.9-.7 1.9 0 1.5 1.2 2.1 1.2 2.1s1.2.9 3.7 1.5c2 .5 1.4 1.5 1.4 1.5-.5 1-2.2.9-2.2.9-1.5 0-2.3-.7-2.3-.7-.2-.3.2-.4.2-.4.5-.4.6-1 .4-1.5-.3-.7-1.2-1-2.3-.7-.5.2-.8.4-1.1.7" fill="#231815"/><path d="m52.9 6.2v-2.6c0-.2-.3-.4-.3-.4s-.4-.2-.3-.5c0 0 0-.3.6-.3h1.8c.6 0 .5.3.5.3.1.3-.2.5-.2.5s-.3.2-.3.5v4.9s0 .5-.6.5c-.2 0-.3-.1-.6-.3l-3.1-3.4c-.3-.2-.3.2-.3.2v2.2s0 .3.3.4c0 0 .3.1.3.4 0 0 0 .4-.5.4h-1.9c-.6 0-.6-.4-.6-.4 0-.5.3-.6.3-.6.3-.1.3-.4.3-.4v-3.8c0-.5-.3-.6-.3-.6s-.4-.1-.3-.5c0 0 .1-.3.6-.3h1s.2 0 .4.1z" fill="#231815"/><path d="m80.2 6.2v-2.6c0-.2-.3-.4-.3-.4s-.3-.2-.2-.5c0 0 0-.3.5-.3h1.8c.6 0 .5.3.5.3.1.3-.3.5-.3.5s-.2.1-.2.5v4.9s0 .5-.6.5c-.2 0-.3-.1-.6-.3l-3.1-3.4c-.3-.2-.3.2-.3.2v2.2s0 .3.3.4c0 0 .3.1.3.4 0 0 0 .4-.6.4h-1.9c-.6 0-.6-.4-.6-.4 0-.3.3-.4.3-.4.3-.1.3-.4.3-.4v-4c0-.5-.3-.6-.3-.6s-.3-.1-.2-.5c0 0 .1-.3.6-.3h1s.2 0 .3.1z" fill="#231815"/><path d="m39.6 8c-.3-.1-.3-.4-.3-.4v-3.7c0-.5.3-.7.3-.7s.5-.2.4-.5c0 0 0-.3-.6-.3h-1.9c-.5 0-.5.3-.5.3-.1.3.3.5.3.5s.3.2.3.7v1.1s0 .3-.3.3h-2.2c-.3 0-.3-.3-.3-.3v-1.1c0-.5.3-.7.3-.7s.4-.2.3-.5c0 0 0-.3-.5-.3h-1.9c-.6 0-.5.3-.5.3-.1.3.3.5.3.5s.3.2.3.7v3.7s0 .3-.3.4c0 0-.3.1-.3.4 0 0 0 .4.5.4h2c.6 0 .5-.4.5-.4 0-.3-.3-.4-.3-.4-.3-.1-.3-.4-.3-.4v-1.2s0-.3.3-.3h2.2c.3 0 .3.3.3.3v1.2s0 .3-.3.4c0 0-.3.1-.3.4 0 0 0 .4.6.4h1.9c.4.1.4-.4.4-.4 0-.3-.4-.4-.4-.4" fill="#231815"/><path d="m69.8 8c-.3-.1-.3-.4-.3-.4v-3.7c0-.5.3-.7.3-.7s.4-.2.3-.5c0 0 0-.3-.5-.3h-1.9c-.5 0-.5.3-.5.3-.1.3.3.5.3.5s.3.2.3.7v1.1s0 .3-.3.3h-2.2c-.3 0-.3-.3-.3-.3v-1.1c0-.5.3-.7.3-.7s.4-.2.3-.5c0 0 0-.3-.5-.3h-1.9c-.5 0-.5.3-.5.3 0 .3.3.5.3.5s.3.2.3.7v3.7s0 .3-.3.4c0 0-.3.1-.3.4 0 0 0 .4.5.4h1.9c.6 0 .5-.4.5-.4 0-.3-.3-.4-.3-.4-.3-.1-.3-.4-.3-.4v-1.2s0-.3.3-.3h2.2c.3 0 .3.3.3.3v1.2s0 .3-.3.4c0 0-.3.1-.3.4 0 0 0 .4.5.4h1.9c.6 0 .5-.4.5-.4.1-.3-.3-.4-.3-.4" fill="#231815"/><path d="m72.5 8.9h.9c.6 0 .6-.5.6-.5 0-.3-.3-.4-.3-.4-.3-.1-.3-.4-.3-.4v-3.8c0-.5.3-.6.3-.6s.4-.1.3-.5c0 0-.1-.3-.5-.3h-1.9c-.5 0-.5.3-.5.3-.1.4.3.5.3.5s.3.1.3.6v3.8s0 .3-.3.4c0 0-.3.1-.3.4 0 0 0 .4.5.4h.9" fill="#231815"/><path d="m44.1 6h-.6c-.1 0-.2 0-.1-.1l.4-.8s.1-.3.2 0l.4.8c-.1.1-.2.1-.3.1m3.3 2.4c0-.3-.4-.5-.4-.5-.1 0-.2-.2-.2-.2l-2.1-5.1s-.1-.3-.5-.3h-.8c-.4 0-.5.3-.5.3l-2.1 4.9s-.1.3-.4.4c0 0-.3.1-.3.4 0 0 0 .4.6.4h1.5c.6 0 .5-.4.5-.4 0-.2-.2-.3-.3-.4s0-.3 0-.3l.3-.7c.2.1.3 0 .3 0h1.4c.2 0 .3.1.3.1l.3.7s.1.2 0 .3c-.1 0-.3.1-.3.3 0 0 0 .4.6.4h1.6c.5.2.5-.3.5-.3z" fill="#231815"/><path d="m60.6 4.1c1 .5 1.4-.3 1.4-.3.7-1 .3-1.4.3-1.4-.4-.2-.9.2-.9.2-.4.5-1 .1-1 .1-.9-.5-1.8-.5-1.8-.5-.5 0-.7 0-1 .1-2 .5-1.9 1.7-1.9 1.7-.2 1.8 2.8 2.1 2.8 2.1 1.6.3 1.5 1.2 1.5 1.2-.1.8-1.1.7-1.1.7-1.3 0-1.7-.7-1.7-.7-.7-.8-1.4.2-1.4.2-.5.6-.5 1-.5 1 0 .4.3.5.6.5.2 0 .3-.2.3-.2.5-.4 1-.2 1-.2 1.7.4 2 .4 2 .4 3.1.3 3-1.9 3-1.9.1-1.8-2.4-2-2.4-2-1.4-.2-2-.6-2-.6-.3-.2-.3-.5-.3-.5 0-.3.3-.5.3-.5s.8-.4 1.8.1z" fill="#231815"/><g fill="#ffee02"><path d="m877.4 1109.9c-.2 0-.4 0-.6 0h-14.6c-2.8 0-5-.8-6.4-2.5-1.5-1.7-1.6-3.7-1.5-4.5 0-4.9 6.5-7.3 7.8-7.8.4-.2 1.1-1.4 1.3-2.3l.1-.2 9.7-28.1c-.4.2-1.1.7-1.6 1.2l-.2.2-10.9 8.3c-3.7 3.2-7.3 2.2-8.9 1.1l-.4-.3-.3-.4c-2.2-3-.7-6.5.5-8.3 8.7-13.7 13.1-16.9 14.6-17.6 2.2-1.1 4.3-1.4 6.1-.8 2.3.8 3.2 2.6 3.4 2.9l.2.3.1.4c0 .2.1.5.2.7h16.2.9l1.3-1.4c4.4-3.8 8.3-2.2 9.8-.8l.1.1c4 4.3 6 14.6 6.3 16.2 1.5 6 1.5 9.3-.2 11.3-.6.7-1.3 1.1-2.1 1.3-1.8.6-3.2.3-4.1 0-1.6-.6-2.4-1.9-2.8-2.6-2.6-3.2-7.1-9.8-7.3-10l-.2-.3c-.5-.9-.9-1.1-1.1-1.2h-.1l-11.1 30.5c0 .1-.1.2-.1.4 5.5 2.2 5.7 5.7 5.6 7.2-.1 1.7-.7 3.2-2 4.4-2.2 2.4-6 2.6-7.7 2.6zm-17.1-6.5s0 .1.1.1c.1.1.7.4 1.9.4h14.8c1.4.1 3.4-.3 4-.9.1-.1.1-.1.1-.3v-.3c-.2-.2-.8-.7-2.2-1.2-.9-.2-2-.7-2.7-1.8-1-1.5-1.1-3.5-.2-6l11.1-30.5c.5-2.1 2.4-4 5.1-4 1.8-.2 4.9.5 7 4.1.6.9 4.2 6.1 6.5 9-.1-1-.4-2.3-.8-4.1v-.2c-.7-3.8-2.5-10.5-4.6-13.1-.3-.1-.9.1-1.7.7l-.6.6c-.1.2-.2.4-.3.5-1.2 1.6-3.5 1.8-5.3 1.8h-19l-.9-.8c-.3-.3-1.6-1.6-2.2-3.7-.2 0-.7.1-1.4.5l-.2.1c-.6.4-4.2 3-12.1 15.4 0 0 .1-.1.1-.1l.2-.1 10.9-8.3c1-.9 3.2-2.7 5.4-2.7h2.7c1.1-.1 2.4.2 3.4 1.3.5.6 1.3 1.9.6 4l-10.6 30.7c-.3.9-1.6 5-5.1 6.3-1.6.6-3.4 1.6-3.8 2.2z"/><path d="m917 1108.6c-1.2 0-2.3-.1-2.9-.1-6.7-.2-10.7-1.4-12.4-3.9-.9-1.2-.9-2.3-.9-3.1 0-3.5 3.3-5.8 6.7-6.5l3.6-10.8c-2.4-1.1-3.4-3.1-3.5-4.7-.5-3.4 2.3-5.7 5.2-6.4 4.6-1.2 10-.8 10.2-.7h.2c2.7.4 4.5 1.4 5.5 3.1.9 1.6.8 3.3.4 4.4l-5.2 15.7c4.5 2 4.9 5.2 4.8 6.4 0 1.5-.6 2.9-1.8 3.9-2.3 2.3-6.7 2.7-9.9 2.7zm-9.7-7.1c1 .4 3 .9 7 1h.2c3.2.3 6.8-.1 8.1-.7-.3-.2-.8-.6-1.9-1-.9-.3-1.8-.9-2.3-1.8-.7-1.3-.8-2.8-.3-4.6l5.2-15.8c-.2-.1-.4-.1-.7-.2-.6 0-4.7-.3-8.1.5h.1c1.1.1 2 .8 2.6 1.7 1 1.7.3 3.7-.1 4.4l-3.8 11.3c-.3 1.9-1.8 4-4.5 4.5-.4.2-1.1.4-1.5.7z"/><path d="m922.8 1075.4c-6.6 0-9.6-4-9.6-7.7 0-3.8 3-7.8 9.6-7.8s9.6 4 9.6 7.8c0 3.7-3 7.7-9.6 7.7zm0-9.5c-2.1 0-3.6.7-3.6 1.8 0 1 1.5 1.7 3.6 1.7s3.6-.7 3.6-1.7c0-1.1-1.5-1.8-3.6-1.8z"/><path d="m938.7 1124.6c-.6 0-1.1 0-1.3-.1-11.5-.1-15.2-7.3-15.5-11.1-.2-3.4 1-5.4 2.1-6.5 2.4-2.5 5.8-2.6 6.2-2.6 6 0 8.6 4.3 8.8 7.3v.1.1c0 .7-.1 1.4-.3 2 3.1-1.3 5.3-4.7 6.6-7.2-.6.1-1.2.1-1.7.1-7.7 0-11.3-5.3-11.8-6.1-6.7-10.7 1.7-21.1 2.1-21.5 4-4.9 9.2-7.5 15.1-7.5 4.8 0 8.5 1.7 9 2 .4-.1 1.1-.4 1.4-.6l.1-.1c1.6-1 3.3-1.5 5-1.5 2.2 0 3.7.8 4.2 1.1 4.7 2.7 3.9 8.4 2.8 11.2-4.7 14.8-8.1 22-8.5 22.8-7.6 16.8-20.5 18.1-24.3 18.1zm7.6-28.6s.4.1.9.1 1.8 0 2.8-2.7v-.1-.1c0-.1 2.3-5.5 3.2-9.8 0-.2-.1-.8-.8-1.2-.1 0-.2 0-.4 0-2.1 0-4.1 2.3-5.5 6.2-.8 2.2-1.5 5.9-.8 7.2.1.1.1.1.2.2h.2z"/><path d="m985.6 1109.1c-.5 0-.8 0-1 0-12.6-.5-16-9.6-16.2-10-4.1-10.8 3.2-18.4 4.3-19.4 5.5-6 12.2-7.2 16.9-7.2 3.6 0 6.2.7 6.4.8 4.6 1.4 7.7 3.8 9.3 7 1.7 3.6 1 7 .6 8.2-.3 2.4-1.8 4.2-4.4 5.5 0 0 .1.1.1.1 1 .8 1.7 2 1.8 3.3.1 1.6-.8 2.8-1.2 3.4-6 7.6-14.2 8.3-16.6 8.3zm-1.8-13.8c0 .3.1.5.3.8.5.9 1.5 1.3 1.5 1.3.6.2 1.2.2 1.9.2 2.5 0 5-1.1 6.5-2.1-1.1.1-2.2.1-3.4.1-2.6.1-5-.1-6.8-.3zm3.4-10.6c1.8 0 3.4-.2 4.5-.6-.4-.9-.9-1.4-1.1-1.5l-.3-.1v-.1c-.1 0-.4-.2-.8-.2-.2 0-.7 0-1.4.7-.6.6-1 1.2-1.3 1.7.1.1.3.1.4.1z"/><path d="m1014.8 1109.9c-1 0-1.9 0-2.6-.1-6 .1-9.6-.9-11.4-3.2-.9-1.2-1.2-2.5-1-3.4.1-3 2.6-4.9 5.1-5.3.6-.2.9-.5.9-.5l.1-.2 3-8.3c-3.9-.7-5.4-4.2-5.4-6.7.1-7.1 7-9.2 10.6-9.4h.1c4.6 0 7.2 2 8.5 4.2 4.7-3.2 7.8-3.2 9-3 5.8.5 7.8 5.1 7.8 8.2v.2c-.4 6.1-5.1 8.4-8.1 8.4-2.6 0-4.5-1-5.7-2.2l-3.6 10c3.5 1.7 4 4.4 3.7 6-.1 1.2-.7 2.2-1.6 3-2.3 1.9-6.4 2.3-9.4 2.3zm-2.4-6.1h.1c2 .1 4.3.1 5.8-.2-1.7-.9-2.4-2-2.6-2.9-.4-1.3-.1-2.4.1-3l4.4-12c.2-.3.3-.7.5-1-.1 0-.3-.1-.4-.1-1.1-.3-2.3-1.3-2.5-3.8-.1-.6-.7-1.9-3.6-2-4.4.2-4.8 2.8-4.8 3.3.1.9.5.9.8.9h.3.1l.5-.3c1.7-1.1 3.3-.6 4.2.1.4.4 1.7 1.7.7 4l-4.5 12.3c-.2.7-1.3 3.1-4.3 4.2 1 .2 2.6.4 5 .3zm-2-19.2 2.4 1.1zm18.9-1.1c.2.8.9 1.3 2 1.3.8-.1 2-.6 2.1-2.7-.1-1.3-.8-2-2.3-2.1h-.4c-.3 0-1.3.1-2.8.9.7.6 1.2 1.5 1.4 2.6z"/><path d="m1049 1108.8c-3.8 0-8.3-.7-12.3-3.2-.9-.5-5.6-3.3-5.6-8.2 0-.3.1-3 2.1-5.3l.1-.1c.9-.9 2.1-1.6 3.6-2.2-.8-1.3-1.5-2.9-1.5-4.9-.1-.8-.1-4.1 2.4-6.9l.2-.2.1-.2c4.8-5.5 14-5.6 15-5.6 12.1.3 15.5 4.9 16.3 6.4.4.7 1 2.1.7 4.3-.2 2.5-1.9 4.5-4.5 5.7 2.1 1.4 4.4 4.1 4.2 8 .1 1.9-.6 8.4-12.3 11.3-.6.1-4 1.1-8.5 1.1zm8.7-9c-.4.8-1 1.5-1.6 2 6-1.5 7.6-3.9 7.7-5.1l-.1-.5.1-.2c.2-1.9-1.9-2.9-1.9-2.9l-.4-.2c-1.4-.9-6.5-2.7-9.7-3.7-5.4-1.9-6.5-5.2-6.2-7.2.1-.9.4-1.9 1-2.8-1.5.5-2.9 1.3-3.8 2.3l-.1.1-.3.3c-1 1.1-1 2.6-1 2.6v.2c.1 2 1.5 2.8 1.7 2.9l.4.2s3 2.1 8.7 3.5c3 .8 5 2.2 5.8 4.2.6 1.7.3 3.3-.3 4.3zm-20.5-2.3c.1 1.2 1.7 2.5 2.5 2.9l.2.1c.4.2.8.5 1.2.7-1.3-1.3-1.1-2.8-1-3.2.2-.9.8-1.7 1.7-2.2 0-.1 0-.1 0-.3-.2-.1-1-.3-2.6 0-.8.3-1.2.6-1.4.8-.5.4-.6 1-.6 1.2zm10.2.1c.5.1 1.2.2 1.9.2h.2c.6 0 1.5-.1 2.1-.3-.3-.1-.6-.2-1-.3-1.1-.3-2-.6-3-.9 0 .5-.1.9-.2 1.3zm4.3-15.1c.3.2.8.6 1.9 1-.1-.5-.1-1-.1-1.5-.8.1-1.4.3-1.8.5zm7.8.4s.1.1.1.1c.3.2 1.1.4 2.3.3 1.6-.2 2.2-.9 2.2-1.1v-.2c0-.2 0-.4 0-.5l-.2-.3c-.2-.2-.8-.8-2.1-1.4 0 .7-.2 1.3-.6 1.9l-.5.8-.9.3s-.2 0-.3.1z"/><path d="m990.5 1061.8c-1.8 0-2.9-1.1-3.5-1.7l-.1-.1-2.2-2.5c0 .6-.2 1.7-1.1 2.6-.6.6-1.6 1.3-3.3 1.3h-5c-1.7 0-2.7-.7-3.3-1.3-1.1-1.2-1.2-2.6-1.2-3 0-1.4.7-2.4 1.5-3.1v-8.4c-1.2-.9-2-2.6-1.5-4.5.5-1.6 2.1-3.1 4.5-3h2.4c.7 0 2.1.1 3.1 1.1l.1.1 2 2.3c0-.1 0-.1 0-.2.1-.8.5-1.5 1-2.1.6-.6 1.6-1.3 3.4-1.3h4.8c1.8 0 2.9.7 3.4 1.3s.9 1.2 1 2c.4 1.7-.4 3.1-1.5 4v12.1c0 .5-.1 1.8-1.1 2.8-.4.8-1.5 1.6-3.4 1.6zm-12.3-16.4v1.2c.2-.2.4-.3.6-.5z"/><path d="m1063 1061.8c-1.6 0-2.7-.8-3.6-1.8l-.1-.1-2.2-2.4c-.1.6-.3 1.7-1.2 2.6-.6.6-1.6 1.3-3.3 1.3h-4.9c-1.7 0-2.8-.7-3.3-1.3-1.1-1.2-1.2-2.6-1.2-3v-.1c.1-1.3.7-2.3 1.5-3v-8.5c-1.2-.9-2-2.5-1.5-4.4l.1-.3c.5-1.5 2.1-2.9 4.5-2.8h2.4c.7 0 2.1.1 3.2 1.2l.1.1 2 2.3c0-.1 0-.2 0-.3.1-.7.5-1.5 1-2 .6-.6 1.6-1.3 3.4-1.3h4.8c1.8 0 2.8.7 3.4 1.3s.9 1.3 1 2.1c.3 1.6-.4 3.1-1.5 3.9v12.1c0 .6-.1 1.8-1.1 2.8-.5.8-1.6 1.6-3.5 1.6zm-12.3-16.4v1.2c.2-.2.4-.3.6-.5z"/><path d="m951.9 1061.4h-5c-1.7 0-2.7-.7-3.3-1.3 0 0-.1-.1-.1-.1s-.1.1-.1.1c-.6.6-1.6 1.3-3.3 1.3h-5c-1.7 0-2.7-.7-3.3-1.3-1-1.1-1.1-2.3-1.1-2.9 0-1.4.7-2.5 1.6-3.2v-8.4c-1.1-.9-1.9-2.4-1.6-4.1.1-.7.4-1.5 1-2 .6-.6 1.6-1.3 3.4-1.3h5c1.8 0 2.8.7 3.4 1.3.6-.6 1.6-1.3 3.4-1.3h5c2.7 0 4.2 1.6 4.4 3.3.3 1.7-.5 3.2-1.6 4.1v8.4c.8.7 1.6 1.7 1.7 3.1 0 .5 0 1.9-1.1 3-.7.6-1.7 1.3-3.4 1.3zm-9-7.4c.2.2.4.3.5.5.2-.2.4-.4.6-.5zm0-8.1h1.2v-.3c-.2-.2-.4-.4-.6-.6-.2.2-.4.4-.6.6z"/><path d="m1031.9 1061.4h-5c-1.7 0-2.7-.7-3.3-1.3 0 0-.1-.1-.1-.1s-.1.1-.1.1c-.6.6-1.6 1.3-3.3 1.3h-5c-1.7 0-2.7-.7-3.3-1.3-1.1-1.2-1.2-2.6-1.2-3 0-1.3.7-2.4 1.6-3.1v-8.4c-1.1-.9-2-2.4-1.6-4.1.1-.7.5-1.4 1-2 .6-.6 1.6-1.3 3.4-1.3h5c1.8 0 2.8.7 3.4 1.3.6-.6 1.6-1.3 3.4-1.3h5c1.8 0 2.9.7 3.4 1.3.6.6.9 1.3 1 2.1.3 1.7-.5 3.2-1.6 4.1v8.4c.8.7 1.6 1.7 1.6 3.1 0 .5 0 1.9-1.1 3-.5.5-1.5 1.2-3.2 1.2zm-9-7.4c.2.2.4.3.6.5.2-.2.4-.4.6-.5zm0-8.1h1.2v-.3c-.2-.2-.4-.4-.6-.6-.2.2-.4.4-.6.6z"/><path d="m1042.1 1061.4h-5c-1.7 0-2.7-.7-3.3-1.3-1.1-1.2-1.2-2.6-1.1-3 .1-1.3.8-2.4 1.6-3.1v-8.4c-1.2-.9-2-2.5-1.5-4.4.4-1.5 1.8-3.1 4.3-3.1h5c2.4 0 3.9 1.5 4.3 3.1.5 1.9-.3 3.5-1.5 4.4v8.4c.9.7 1.6 1.8 1.6 3.2 0 .5-.1 1.8-1.1 2.9-.6.6-1.6 1.3-3.3 1.3z"/><path d="m967.4 1061.4c-1.7 0-2.7-.7-3.3-1.3-.3-.3-.5-.6-.6-.9-.2.3-.4.6-.6.9-.6.6-1.6 1.3-3.3 1.3h-4c-2.9 0-4.5-2.1-4.5-4.2 0-1.7 1.1-3.1 2.2-3.7l5.5-12.6c.5-1.4 2-2.8 4.1-2.8h2.1c2.2 0 3.6 1.4 4.1 2.8l5.2 12.8c1 .7 1.9 1.9 1.9 3.5 0 .5-.1 1.8-1.1 2.9-.6.6-1.6 1.3-3.3 1.3z"/><path d="m1005.8 1061.8c-.5 0-1 0-1.6-.1-.6 0-2.1-.2-6.1-1.2-.4.4-1.1.9-2.1 1.1-1.4.3-2.9 0-4-.9-.9-.8-1.4-2.1-1.3-3.4 0-.8.3-2.4 2-4.4.3-.4.8-1 1.6-1.6-.4-.3-.7-.6-1-1-1.1-1.3-1.6-3-1.5-4.7-.1-2.2 1.4-5.7 7.2-7.3 1.2-.3 2-.3 3.4-.3.4 0 3 .1 5.8 1.5 1.4-1.1 3.5-1.7 5.5-.6l.2.1.2.2c.3.3 3 2.9-.2 7.5-.3.5-.7.9-1.2 1.3 1.7 1.5 2.5 3.5 2.4 5.8 0 .9-.2 3.5-2.4 5.6-1.6 1.6-3.9 2.4-6.9 2.4z"/></g><path d="m874.5 1055.4s-1.2-1.2-1.6-3c0 0-1.4-2.9-5.5-.8 0 0-3.8 1.4-13.5 16.6 0 0-2.1 2.8-.6 4.8 0 0 2.3 1.6 5.2-1l11-8.4s2.1-2 3.5-2h2.9s1.5-.2 1 1.4l-10.6 30.8s-.9 3.5-3.3 4.4c0 0-5.9 2-5.7 5 0 0-.5 3.9 5 3.9h14.7s7.2.4 7.2-4.1c0 0 .9-2.7-4.5-4.5 0 0-2.1-.1-.8-3.9l11.1-30.6s.4-2 2.4-1.8c0 0 2.5-.5 4.3 2.7 0 0 4.9 7.1 7.4 10.1 0 0 1 2.5 3.6 1.4 0 0 2.5.3.1-9 0 0-2-11-5.6-14.8 0 0-2.3-2.1-5.8.9l-1.1 1.3s.3.9-3 .9h-17.8" fill="#231815"/><path d="m914.4 1084.1-3.9 11.7s-.1 1.8-2.1 2.2c0 0-4.7.9-4.5 3.8 0 0-1 3.4 10.4 3.7 0 0 11.6 1 11.6-3.5 0 0 .4-2.5-4.3-4 0 0-1.3-.2-.6-2.6l5.4-16.4s1.2-2.9-3.4-3.5c0 0-5.1-.4-9.3.7 0 0-3.5.8-3 3.2 0 0-.1 2.4 3.7 2.7-.1-.1.8 0 0 2" fill="#231815"/><path d="m922.8 1072.4c4.2 0 6.6-2.1 6.6-4.7s-2.4-4.8-6.6-4.8-6.6 2.2-6.6 4.8 2.3 4.7 6.6 4.7" fill="#231815"/><path d="m953.6 1079.5s-6.2-2.3-9.8 8c0 0-3.6 9.9 1.4 11.3 0 0 5.4 2.2 7.7-4.4 0 0 2.5-5.9 3.4-10.5 0-.1.3-3-2.7-4.4m7.3-4c3.3-2.1 6-.4 6-.4 3.8 2.1 1.5 7.6 1.5 7.6-4.9 15.5-8.4 22.6-8.4 22.6-7.9 18.1-22.5 16.3-22.5 16.3-11.9 0-12.7-8.4-12.7-8.4-.4-5.9 5.3-5.9 5.3-5.9 5.4 0 5.8 4.5 5.8 4.5 0 3.2-3.6 3.2-3.6 3.2 1.6 2.9 5.7 2.1 5.7 2.1 7.9-1.8 11.4-12.7 11.4-12.7.8-2.7-1.6-1.4-1.6-1.4-9.7 2.6-13.6-4.1-13.6-4.1-5.7-9 1.9-18 1.9-18 8.8-10.8 20.5-4.6 20.5-4.6 1.7 1 4.3-.8 4.3-.8z" fill="#231815"/><path d="m994.7 1083.5c-.8-2.6-2.7-3.5-2.7-3.5s-3-2.1-6 .9c-1.9 1.9-2.6 4-2.6 4s-1.3 2.8 1 2.7c0 0 6.7.8 9.8-1.3 1.1-.8.5-2.8.5-2.8m-10 16.8c6.5 1.8 12.9-3.6 12.9-3.6 1.5-.9 2.1-.4 2.1-.4 1.4 1.1.1 2.4.1 2.4-6.3 8.3-15.1 7.4-15.1 7.4-10.8-.4-13.6-8-13.6-8-3.7-9.6 3.6-16.3 3.6-16.3 8.4-9.2 20.3-5.6 20.3-5.6 10.9 3.4 7.8 11.7 7.8 11.7-.6 7.4-21.9 4.2-21.9 4.2-1.8 6.5 3.8 8.2 3.8 8.2z" fill="#231815"/><path d="m1013.1 1085.8-4.5 12.4s-.6 2-3.2 2.6c0 0-2.7.3-2.7 2.6 0 0-.9 3.6 9.5 3.3 0 0 10.1.7 10.4-2.6 0 0 .5-1.8-2.6-3.1-2.3-.9-1.5-2.2-1.5-2.2l4.3-11.9c.9-2.1 2.1-3.3 2.1-3.3 1.2-1.3 1.3.3 1.3.3s.7 3.8 4.9 3.8c0 0 4.8-.1 5.1-5.6 0 0 0-4.8-5.1-5.2 0 0-3.4-.7-9.4 4.4 0 0-.9 1.2-1-.8 0 0-.4-4.7-6.7-4.7 0 0-7.6.3-7.7 6.3 0 0 .1 3.9 3.8 3.9 0 0 1.7.2 2.5-.7 0 0 1-.6.5.5" fill="#231815"/><path d="m1035.5 1094.1c-1.3 1.5-1.4 3.3-1.4 3.3 0 3.4 4.1 5.6 4.1 5.6 8 5 18.5 1.8 18.5 1.8 11-2.8 10-8.4 10-8.4.4-4.1-3.7-5.9-3.7-5.9-2.4-1.6-10.5-4.1-10.5-4.1-4.7-1.6-4.1-4-4.1-4 0-3.4 6.8-3.5 6.8-3.5 4.4 0 3.6 1.1 3.6 1.1-2.2.8-2.6 1.6-2.4 3.3.3 2.1 2.5 3.5 5.9 3 3-.4 4.6-2 4.8-3.8.3-1.6-.4-2.5-.4-2.5s-1.9-4.5-13.6-4.9c0 0-8.8 0-12.8 4.6-.1.1-.1.1-.2.2-2 2.2-1.8 4.9-1.8 4.9.1 3.9 3.3 5.5 3.3 5.5s3.3 2.3 9.7 4c5.3 1.4 3.7 4.1 3.7 4.1-1.4 2.8-5.8 2.4-5.8 2.4-4 0-6.1-1.8-6.1-1.8-.7-.6.1-.7.1-.7 1.4-1 1.6-2.5 1.2-3.9-.7-2-3.1-2.6-6.2-1.9-1.1.4-2 1-2.7 1.6" fill="#231815"/><path d="m987.4 1051.3v-7c0-.5-.9-1-.9-1s-.8-.6-.6-1.4c0 0 0-.8 1.5-.8h4.8c1.5 0 1.4.8 1.4.8.3.8-.7 1.4-.7 1.4s-.8.5-.8 1.3v12.9s.1 1.2-1.7 1.2c-.4 0-.8-.2-1.5-.9l-8.2-9.1c-.8-.6-.7.6-.7.6v5.8s0 .7.7 1c0 0 .7.3.7 1.1 0 0 .1 1.2-1.4 1.2h-5c-1.5 0-1.5-1.2-1.5-1.2 0-.8.8-1.1.8-1.1.7-.2.7-1 .7-1v-10.3c0-1.4-.9-1.5-.9-1.5s-1-.3-.7-1.4c0 0 .3-.9 1.6-.8h2.6s.6 0 .9.2z" fill="#231815"/><path d="m1060 1051.3v-7c0-.5-.9-1-.9-1s-.8-.6-.6-1.4c0 0 0-.8 1.4-.8h4.8c1.5 0 1.5.8 1.5.8.2.8-.7 1.4-.7 1.4s-.8.5-.8 1.3v12.9s.1 1.2-1.7 1.2c-.4 0-.8-.2-1.5-.9l-8.2-9.1c-.8-.6-.7.6-.7.6v5.8s0 .7.7 1c0 0 .8.3.8 1.1 0 0 0 1.2-1.5 1.2h-4.9c-1.5 0-1.5-1.2-1.5-1.2.1-.8.8-1.1.8-1.1.7-.2.7-1 .7-1v-10.3c0-1.4-.9-1.5-.9-1.5s-1-.3-.7-1.4c0 0 .3-.9 1.6-.8h2.6s.6 0 .9.2z" fill="#231815"/><path d="m952.4 1056.1c-.7-.2-.7-1.1-.7-1.1v-9.9c0-1.3.9-1.8.9-1.8s1-.6.8-1.4c0 0 0-.8-1.5-.8h-5c-1.5 0-1.5.8-1.5.8-.3.8.7 1.4.7 1.4s.9.4.9 1.8v3s0 .8-.7.8h-5.8c-.7 0-.7-.8-.7-.8v-3c0-1.3.9-1.8.9-1.8s1-.6.7-1.4c0 0 .1-.8-1.4-.8h-5c-1.5 0-1.4.8-1.4.8-.2.8.7 1.4.7 1.4s.9.4.9 1.8v9.9s0 .9-.7 1.1c0 0-.9.3-.9 1.1 0 0-.1 1.2 1.4 1.2h5c1.5 0 1.4-1.2 1.4-1.2 0-.8-.9-1.1-.9-1.1-.7-.2-.7-1.1-.7-1.1v-3.2s0-.8.7-.8h5.8c.7 0 .7.8.7.8v3.2s0 .9-.7 1.1c0 0-.9.3-.9 1.1 0 0-.1 1.2 1.5 1.2h5c1.5 0 1.5-1.2 1.5-1.2-.1-.8-1-1.1-1-1.1" fill="#231815"/><path d="m1032.4 1056.1c-.7-.2-.7-1.1-.7-1.1v-9.9c0-1.3.9-1.8.9-1.8s1-.6.7-1.4c0 0 0-.8-1.5-.8h-5c-1.5 0-1.4.8-1.4.8-.3.8.7 1.4.7 1.4s.9.4.9 1.8v3s0 .8-.7.8h-5.8c-.7 0-.7-.8-.7-.8v-3c0-1.3.9-1.8.9-1.8s1-.6.7-1.4c0 0 0-.8-1.4-.8h-5c-1.4 0-1.4.8-1.4.8-.3.8.7 1.4.7 1.4s.9.4.9 1.8v9.9s0 .9-.7 1.1c0 0-.9.3-.9 1.1 0 0 0 1.2 1.4 1.2h5c1.5 0 1.4-1.2 1.4-1.2 0-.8-.9-1.1-.9-1.1-.7-.2-.7-1.1-.7-1.1v-3.2s0-.8.7-.8h5.8c.7 0 .7.8.7.8v3.2s0 .9-.7 1.1c0 0-.9.3-.9 1.1 0 0-.1 1.2 1.4 1.2h5c1.5 0 1.5-1.2 1.5-1.2 0-.8-.9-1.1-.9-1.1" fill="#231815"/><path d="m1039.6 1058.4h2.5c1.5 0 1.4-1.2 1.4-1.2 0-.8-.9-1.1-.9-1.1-.7-.2-.7-1.1-.7-1.1v-10.1c0-1.3.9-1.5.9-1.5s1-.3.7-1.4c0 0-.2-.8-1.4-.8h-5c-1.3 0-1.4.8-1.4.8-.3 1.1.7 1.4.7 1.4s.9.2.9 1.5v10.1s0 .9-.7 1.1c0 0-.9.3-.9 1.1 0 0-.1 1.2 1.4 1.2z" fill="#231815"/><path d="m964.3 1050.8h-1.7c-.3 0-.4-.1-.4-.2l1-2.2s.3-.9.6 0l.9 2.2c.1.1-.2.2-.4.2m8.7 6.4c0-.8-1.1-1.3-1.1-1.3-.3-.1-.4-.5-.4-.5l-5.4-13.4s-.2-.9-1.3-.9h-2.1c-1.1 0-1.3.9-1.3.9l-5.6 13s-.3.9-1.1 1.1c0 0-.7.3-.7 1.1 0 0 0 1.2 1.5 1.2h4c1.5 0 1.4-1.2 1.4-1.2-.1-.6-.5-.8-.7-.9-.1 0-.1-.1-.1-.1-.3-.3 0-.8 0-.8l.8-1.8c.1-.2.3-.5.5-.5h3.8c.4 0 .7.2.9.4l.8 1.9s.3.6 0 .8c0 0-.1.1-.1.1-.3.1-.8.3-.8.9 0 0 0 1.2 1.5 1.2h4.3c1.3 0 1.2-1.2 1.2-1.2z" fill="#231815"/><path d="m1007.9 1045.7c2.5 1.2 3.6-.7 3.6-.7 1.8-2.6.7-3.6.7-3.6-1.1-.6-2.3.5-2.3.5-1.2 1.4-2.7.4-2.7.4-2.4-1.4-4.8-1.4-4.8-1.4-1.3 0-1.8 0-2.7.3-5.4 1.4-5 4.4-5 4.4-.5 4.8 7.4 5.6 7.4 5.6 4.6.6 4.1 3 4.1 3-.3 2.1-2.9 1.7-2.9 1.7-3.4-.1-4.5-1.8-4.5-1.8-2-2.2-3.8.6-3.8.6-1.4 1.7-1.4 2.8-1.4 2.8-.1 1.2.9 1.4 1.6 1.2.6-.1.9-.5.9-.5 1.4-1.1 2.6-.5 2.6-.5 4.7 1.2 5.5 1.2 5.5 1.2 8.2.8 7.9-5.1 7.9-5.1.4-4.8-6.2-5.3-6.2-5.3-3.8-.5-5.2-1.6-5.2-1.6-.9-.6-.7-1.5-.7-1.5 0-.9.7-1.3.7-1.3s2.1-1.2 4.8.3z" fill="#231815"/><path d="m877.4 1109.9c-.2 0-.4 0-.6 0h-14.6c-2.8 0-5-.8-6.4-2.5-1.5-1.7-1.6-3.7-1.5-4.5 0-4.9 6.5-7.3 7.8-7.8.4-.2 1.1-1.4 1.3-2.3l.1-.2 9.7-28.1c-.4.2-1.1.7-1.6 1.2l-.2.2-10.9 8.3c-3.7 3.2-7.3 2.2-8.9 1.1l-.4-.3-.3-.4c-2.2-3-.7-6.5.5-8.3 8.7-13.7 13.1-16.9 14.6-17.6 2.2-1.1 4.3-1.4 6.1-.8 2.3.8 3.2 2.6 3.4 2.9l.2.3.1.4c0 .2.1.5.2.7h16.2.9l1.3-1.4c4.4-3.8 8.3-2.2 9.8-.8l.1.1c4 4.3 6 14.6 6.3 16.2 1.5 6 1.5 9.3-.2 11.3-.6.7-1.3 1.1-2.1 1.3-1.8.6-3.2.3-4.1 0-1.6-.6-2.4-1.9-2.8-2.6-2.6-3.2-7.1-9.8-7.3-10l-.2-.3c-.5-.9-.9-1.1-1.1-1.2h-.1l-11.1 30.5c0 .1-.1.2-.1.4 5.5 2.2 5.7 5.7 5.6 7.2-.1 1.7-.7 3.2-2 4.4-2.2 2.4-6 2.6-7.7 2.6zm-17.1-6.5s0 .1.1.1c.1.1.7.4 1.9.4h14.8c1.4.1 3.4-.3 4-.9.1-.1.1-.1.1-.3v-.3c-.2-.2-.8-.7-2.2-1.2-.9-.2-2-.7-2.7-1.8-1-1.5-1.1-3.5-.2-6l11.1-30.5c.5-2.1 2.4-4 5.1-4 1.8-.2 4.9.5 7 4.1.6.9 4.2 6.1 6.5 9-.1-1-.4-2.3-.8-4.1v-.2c-.7-3.8-2.5-10.5-4.6-13.1-.3-.1-.9.1-1.7.7l-.6.6c-.1.2-.2.4-.3.5-1.2 1.6-3.5 1.8-5.3 1.8h-19l-.9-.8c-.3-.3-1.6-1.6-2.2-3.7-.2 0-.7.1-1.4.5l-.2.1c-.6.4-4.2 3-12.1 15.4 0 0 .1-.1.1-.1l.2-.1 10.9-8.3c1-.9 3.2-2.7 5.4-2.7h2.7c1.1-.1 2.4.2 3.4 1.3.5.6 1.3 1.9.6 4l-10.6 30.7c-.3.9-1.6 5-5.1 6.3-1.6.6-3.4 1.6-3.8 2.2z" fill="#ffee02"/><path d="m917 1108.6c-1.2 0-2.3-.1-2.9-.1-6.7-.2-10.7-1.4-12.4-3.9-.9-1.2-.9-2.3-.9-3.1 0-3.5 3.3-5.8 6.7-6.5l3.6-10.8c-2.4-1.1-3.4-3.1-3.5-4.7-.5-3.4 2.3-5.7 5.2-6.4 4.6-1.2 10-.8 10.2-.7h.2c2.7.4 4.5 1.4 5.5 3.1.9 1.6.8 3.3.4 4.4l-5.2 15.7c4.5 2 4.9 5.2 4.8 6.4 0 1.5-.6 2.9-1.8 3.9-2.3 2.3-6.7 2.7-9.9 2.7zm-9.7-7.1c1 .4 3 .9 7 1h.2c3.2.3 6.8-.1 8.1-.7-.3-.2-.8-.6-1.9-1-.9-.3-1.8-.9-2.3-1.8-.7-1.3-.8-2.8-.3-4.6l5.2-15.8c-.2-.1-.4-.1-.7-.2-.6 0-4.7-.3-8.1.5h.1c1.1.1 2 .8 2.6 1.7 1 1.7.3 3.7-.1 4.4l-3.8 11.3c-.3 1.9-1.8 4-4.5 4.5-.4.2-1.1.4-1.5.7z" fill="#ffee02"/><path d="m922.8 1075.4c-6.6 0-9.6-4-9.6-7.7 0-3.8 3-7.8 9.6-7.8s9.6 4 9.6 7.8c0 3.7-3 7.7-9.6 7.7zm0-9.5c-2.1 0-3.6.7-3.6 1.8 0 1 1.5 1.7 3.6 1.7s3.6-.7 3.6-1.7c0-1.1-1.5-1.8-3.6-1.8z" fill="#ffee02"/><path d="m938.7 1124.6c-.6 0-1.1 0-1.3-.1-11.5-.1-15.2-7.3-15.5-11.1-.2-3.4 1-5.4 2.1-6.5 2.4-2.5 5.8-2.6 6.2-2.6 6 0 8.6 4.3 8.8 7.3v.1.1c0 .7-.1 1.4-.3 2 3.1-1.3 5.3-4.7 6.6-7.2-.6.1-1.2.1-1.7.1-7.7 0-11.3-5.3-11.8-6.1-6.7-10.7 1.7-21.1 2.1-21.5 4-4.9 9.2-7.5 15.1-7.5 4.8 0 8.5 1.7 9 2 .4-.1 1.1-.4 1.4-.6l.1-.1c1.6-1 3.3-1.5 5-1.5 2.2 0 3.7.8 4.2 1.1 4.7 2.7 3.9 8.4 2.8 11.2-4.7 14.8-8.1 22-8.5 22.8-7.6 16.8-20.5 18.1-24.3 18.1zm7.6-28.6s.4.1.9.1 1.8 0 2.8-2.7v-.1-.1c0-.1 2.3-5.5 3.2-9.8 0-.2-.1-.8-.8-1.2-.1 0-.2 0-.4 0-2.1 0-4.1 2.3-5.5 6.2-.8 2.2-1.5 5.9-.8 7.2.1.1.1.1.2.2h.2z" fill="#ffee02"/><path d="m985.6 1109.1c-.5 0-.8 0-1 0-12.6-.5-16-9.6-16.2-10-4.1-10.8 3.2-18.4 4.3-19.4 5.5-6 12.2-7.2 16.9-7.2 3.6 0 6.2.7 6.4.8 4.6 1.4 7.7 3.8 9.3 7 1.7 3.6 1 7 .6 8.2-.3 2.4-1.8 4.2-4.4 5.5 0 0 .1.1.1.1 1 .8 1.7 2 1.8 3.3.1 1.6-.8 2.8-1.2 3.4-6 7.6-14.2 8.3-16.6 8.3zm-1.8-13.8c0 .3.1.5.3.8.5.9 1.5 1.3 1.5 1.3.6.2 1.2.2 1.9.2 2.5 0 5-1.1 6.5-2.1-1.1.1-2.2.1-3.4.1-2.6.1-5-.1-6.8-.3zm3.4-10.6c1.8 0 3.4-.2 4.5-.6-.4-.9-.9-1.4-1.1-1.5l-.3-.1v-.1c-.1 0-.4-.2-.8-.2-.2 0-.7 0-1.4.7-.6.6-1 1.2-1.3 1.7.1.1.3.1.4.1z" fill="#ffee02"/><path d="m1014.8 1109.9c-1 0-1.9 0-2.6-.1-6 .1-9.6-.9-11.4-3.2-.9-1.2-1.2-2.5-1-3.4.1-3 2.6-4.9 5.1-5.3.6-.2.9-.5.9-.5l.1-.2 3-8.3c-3.9-.7-5.4-4.2-5.4-6.7.1-7.1 7-9.2 10.6-9.4h.1c4.6 0 7.2 2 8.5 4.2 4.7-3.2 7.8-3.2 9-3 5.8.5 7.8 5.1 7.8 8.2v.2c-.4 6.1-5.1 8.4-8.1 8.4-2.6 0-4.5-1-5.7-2.2l-3.6 10c3.5 1.7 4 4.4 3.7 6-.1 1.2-.7 2.2-1.6 3-2.3 1.9-6.4 2.3-9.4 2.3zm-2.4-6.1h.1c2 .1 4.3.1 5.8-.2-1.7-.9-2.4-2-2.6-2.9-.4-1.3-.1-2.4.1-3l4.4-12c.2-.3.3-.7.5-1-.1 0-.3-.1-.4-.1-1.1-.3-2.3-1.3-2.5-3.8-.1-.6-.7-1.9-3.6-2-4.4.2-4.8 2.8-4.8 3.3.1.9.5.9.8.9h.3.1l.5-.3c1.7-1.1 3.3-.6 4.2.1.4.4 1.7 1.7.7 4l-4.5 12.3c-.2.7-1.3 3.1-4.3 4.2 1 .2 2.6.4 5 .3zm-2-19.2 2.4 1.1zm18.9-1.1c.2.8.9 1.3 2 1.3.8-.1 2-.6 2.1-2.7-.1-1.3-.8-2-2.3-2.1h-.4c-.3 0-1.3.1-2.8.9.7.6 1.2 1.5 1.4 2.6z" fill="#ffee02"/><path d="m1049 1108.8c-3.8 0-8.3-.7-12.3-3.2-.9-.5-5.6-3.3-5.6-8.2 0-.3.1-3 2.1-5.3l.1-.1c.9-.9 2.1-1.6 3.6-2.2-.8-1.3-1.5-2.9-1.5-4.9-.1-.8-.1-4.1 2.4-6.9l.2-.2.1-.2c4.8-5.5 14-5.6 15-5.6 12.1.3 15.5 4.9 16.3 6.4.4.7 1 2.1.7 4.3-.2 2.5-1.9 4.5-4.5 5.7 2.1 1.4 4.4 4.1 4.2 8 .1 1.9-.6 8.4-12.3 11.3-.6.1-4 1.1-8.5 1.1zm8.7-9c-.4.8-1 1.5-1.6 2 6-1.5 7.6-3.9 7.7-5.1l-.1-.5.1-.2c.2-1.9-1.9-2.9-1.9-2.9l-.4-.2c-1.4-.9-6.5-2.7-9.7-3.7-5.4-1.9-6.5-5.2-6.2-7.2.1-.9.4-1.9 1-2.8-1.5.5-2.9 1.3-3.8 2.3l-.1.1-.3.3c-1 1.1-1 2.6-1 2.6v.2c.1 2 1.5 2.8 1.7 2.9l.4.2s3 2.1 8.7 3.5c3 .8 5 2.2 5.8 4.2.6 1.7.3 3.3-.3 4.3zm-20.5-2.3c.1 1.2 1.7 2.5 2.5 2.9l.2.1c.4.2.8.5 1.2.7-1.3-1.3-1.1-2.8-1-3.2.2-.9.8-1.7 1.7-2.2 0-.1 0-.1 0-.3-.2-.1-1-.3-2.6 0-.8.3-1.2.6-1.4.8-.5.4-.6 1-.6 1.2zm10.2.1c.5.1 1.2.2 1.9.2h.2c.6 0 1.5-.1 2.1-.3-.3-.1-.6-.2-1-.3-1.1-.3-2-.6-3-.9 0 .5-.1.9-.2 1.3zm4.3-15.1c.3.2.8.6 1.9 1-.1-.5-.1-1-.1-1.5-.8.1-1.4.3-1.8.5zm7.8.4s.1.1.1.1c.3.2 1.1.4 2.3.3 1.6-.2 2.2-.9 2.2-1.1v-.2c0-.2 0-.4 0-.5l-.2-.3c-.2-.2-.8-.8-2.1-1.4 0 .7-.2 1.3-.6 1.9l-.5.8-.9.3s-.2 0-.3.1z" fill="#ffee02"/><path d="m990.5 1061.8c-1.8 0-2.9-1.1-3.5-1.7l-.1-.1-2.2-2.5c0 .6-.2 1.7-1.1 2.6-.6.6-1.6 1.3-3.3 1.3h-5c-1.7 0-2.7-.7-3.3-1.3-1.1-1.2-1.2-2.6-1.2-3 0-1.4.7-2.4 1.5-3.1v-8.4c-1.2-.9-2-2.6-1.5-4.5.5-1.6 2.1-3.1 4.5-3h2.4c.7 0 2.1.1 3.1 1.1l.1.1 2 2.3c0-.1 0-.1 0-.2.1-.8.5-1.5 1-2.1.6-.6 1.6-1.3 3.4-1.3h4.8c1.8 0 2.9.7 3.4 1.3s.9 1.2 1 2c.4 1.7-.4 3.1-1.5 4v12.1c0 .5-.1 1.8-1.1 2.8-.4.8-1.5 1.6-3.4 1.6zm-12.3-16.4v1.2c.2-.2.4-.3.6-.5z" fill="#ffee02"/><path d="m1063 1061.8c-1.6 0-2.7-.8-3.6-1.8l-.1-.1-2.2-2.4c-.1.6-.3 1.7-1.2 2.6-.6.6-1.6 1.3-3.3 1.3h-4.9c-1.7 0-2.8-.7-3.3-1.3-1.1-1.2-1.2-2.6-1.2-3v-.1c.1-1.3.7-2.3 1.5-3v-8.5c-1.2-.9-2-2.5-1.5-4.4l.1-.3c.5-1.5 2.1-2.9 4.5-2.8h2.4c.7 0 2.1.1 3.2 1.2l.1.1 2 2.3c0-.1 0-.2 0-.3.1-.7.5-1.5 1-2 .6-.6 1.6-1.3 3.4-1.3h4.8c1.8 0 2.8.7 3.4 1.3s.9 1.3 1 2.1c.3 1.6-.4 3.1-1.5 3.9v12.1c0 .6-.1 1.8-1.1 2.8-.5.8-1.6 1.6-3.5 1.6zm-12.3-16.4v1.2c.2-.2.4-.3.6-.5z" fill="#ffee02"/><path d="m951.9 1061.4h-5c-1.7 0-2.7-.7-3.3-1.3 0 0-.1-.1-.1-.1s-.1.1-.1.1c-.6.6-1.6 1.3-3.3 1.3h-5c-1.7 0-2.7-.7-3.3-1.3-1-1.1-1.1-2.3-1.1-2.9 0-1.4.7-2.5 1.6-3.2v-8.4c-1.1-.9-1.9-2.4-1.6-4.1.1-.7.4-1.5 1-2 .6-.6 1.6-1.3 3.4-1.3h5c1.8 0 2.8.7 3.4 1.3.6-.6 1.6-1.3 3.4-1.3h5c2.7 0 4.2 1.6 4.4 3.3.3 1.7-.5 3.2-1.6 4.1v8.4c.8.7 1.6 1.7 1.7 3.1 0 .5 0 1.9-1.1 3-.7.6-1.7 1.3-3.4 1.3zm-9-7.4c.2.2.4.3.5.5.2-.2.4-.4.6-.5zm0-8.1h1.2v-.3c-.2-.2-.4-.4-.6-.6-.2.2-.4.4-.6.6z" fill="#ffee02"/><path d="m1031.9 1061.4h-5c-1.7 0-2.7-.7-3.3-1.3 0 0-.1-.1-.1-.1s-.1.1-.1.1c-.6.6-1.6 1.3-3.3 1.3h-5c-1.7 0-2.7-.7-3.3-1.3-1.1-1.2-1.2-2.6-1.2-3 0-1.3.7-2.4 1.6-3.1v-8.4c-1.1-.9-2-2.4-1.6-4.1.1-.7.5-1.4 1-2 .6-.6 1.6-1.3 3.4-1.3h5c1.8 0 2.8.7 3.4 1.3.6-.6 1.6-1.3 3.4-1.3h5c1.8 0 2.9.7 3.4 1.3.6.6.9 1.3 1 2.1.3 1.7-.5 3.2-1.6 4.1v8.4c.8.7 1.6 1.7 1.6 3.1 0 .5 0 1.9-1.1 3-.5.5-1.5 1.2-3.2 1.2zm-9-7.4c.2.2.4.3.6.5.2-.2.4-.4.6-.5zm0-8.1h1.2v-.3c-.2-.2-.4-.4-.6-.6-.2.2-.4.4-.6.6z" fill="#ffee02"/><path d="m1042.1 1061.4h-5c-1.7 0-2.7-.7-3.3-1.3-1.1-1.2-1.2-2.6-1.1-3 .1-1.3.8-2.4 1.6-3.1v-8.4c-1.2-.9-2-2.5-1.5-4.4.4-1.5 1.8-3.1 4.3-3.1h5c2.4 0 3.9 1.5 4.3 3.1.5 1.9-.3 3.5-1.5 4.4v8.4c.9.7 1.6 1.8 1.6 3.2 0 .5-.1 1.8-1.1 2.9-.6.6-1.6 1.3-3.3 1.3z" fill="#ffee02"/><path d="m967.4 1061.4c-1.7 0-2.7-.7-3.3-1.3-.3-.3-.5-.6-.6-.9-.2.3-.4.6-.6.9-.6.6-1.6 1.3-3.3 1.3h-4c-2.9 0-4.5-2.1-4.5-4.2 0-1.7 1.1-3.1 2.2-3.7l5.5-12.6c.5-1.4 2-2.8 4.1-2.8h2.1c2.2 0 3.6 1.4 4.1 2.8l5.2 12.8c1 .7 1.9 1.9 1.9 3.5 0 .5-.1 1.8-1.1 2.9-.6.6-1.6 1.3-3.3 1.3z" fill="#ffee02"/><path d="m1005.8 1061.8c-.5 0-1 0-1.6-.1-.6 0-2.1-.2-6.1-1.2-.4.4-1.1.9-2.1 1.1-1.4.3-2.9 0-4-.9-.9-.8-1.4-2.1-1.3-3.4 0-.8.3-2.4 2-4.4.3-.4.8-1 1.6-1.6-.4-.3-.7-.6-1-1-1.1-1.3-1.6-3-1.5-4.7-.1-2.2 1.4-5.7 7.2-7.3 1.2-.3 2-.3 3.4-.3.4 0 3 .1 5.8 1.5 1.4-1.1 3.5-1.7 5.5-.6l.2.1.2.2c.3.3 3 2.9-.2 7.5-.3.5-.7.9-1.2 1.3 1.7 1.5 2.5 3.5 2.4 5.8 0 .9-.2 3.5-2.4 5.6-1.6 1.6-3.9 2.4-6.9 2.4z" fill="#ffee02"/><path d="m874.5 1055.4s-1.2-1.2-1.6-3c0 0-1.4-2.9-5.5-.8 0 0-3.8 1.4-13.5 16.6 0 0-2.1 2.8-.6 4.8 0 0 2.3 1.6 5.2-1l11-8.4s2.1-2 3.5-2h2.9s1.5-.2 1 1.4l-10.6 30.8s-.9 3.5-3.3 4.4c0 0-5.9 2-5.7 5 0 0-.5 3.9 5 3.9h14.7s7.2.4 7.2-4.1c0 0 .9-2.7-4.5-4.5 0 0-2.1-.1-.8-3.9l11.1-30.6s.4-2 2.4-1.8c0 0 2.5-.5 4.3 2.7 0 0 4.9 7.1 7.4 10.1 0 0 1 2.5 3.6 1.4 0 0 2.5.3.1-9 0 0-2-11-5.6-14.8 0 0-2.3-2.1-5.8.9l-1.1 1.3s.3.9-3 .9h-17.8" fill="#231815"/><path d="m914.4 1084.1-3.9 11.7s-.1 1.8-2.1 2.2c0 0-4.7.9-4.5 3.8 0 0-1 3.4 10.4 3.7 0 0 11.6 1 11.6-3.5 0 0 .4-2.5-4.3-4 0 0-1.3-.2-.6-2.6l5.4-16.4s1.2-2.9-3.4-3.5c0 0-5.1-.4-9.3.7 0 0-3.5.8-3 3.2 0 0-.1 2.4 3.7 2.7-.1-.1.8 0 0 2" fill="#231815"/><path d="m922.8 1072.4c4.2 0 6.6-2.1 6.6-4.7s-2.4-4.8-6.6-4.8-6.6 2.2-6.6 4.8 2.3 4.7 6.6 4.7" fill="#231815"/><path d="m953.6 1079.5s-6.2-2.3-9.8 8c0 0-3.6 9.9 1.4 11.3 0 0 5.4 2.2 7.7-4.4 0 0 2.5-5.9 3.4-10.5 0-.1.3-3-2.7-4.4m7.3-4c3.3-2.1 6-.4 6-.4 3.8 2.1 1.5 7.6 1.5 7.6-4.9 15.5-8.4 22.6-8.4 22.6-7.9 18.1-22.5 16.3-22.5 16.3-11.9 0-12.7-8.4-12.7-8.4-.4-5.9 5.3-5.9 5.3-5.9 5.4 0 5.8 4.5 5.8 4.5 0 3.2-3.6 3.2-3.6 3.2 1.6 2.9 5.7 2.1 5.7 2.1 7.9-1.8 11.4-12.7 11.4-12.7.8-2.7-1.6-1.4-1.6-1.4-9.7 2.6-13.6-4.1-13.6-4.1-5.7-9 1.9-18 1.9-18 8.8-10.8 20.5-4.6 20.5-4.6 1.7 1 4.3-.8 4.3-.8z" fill="#231815"/><path d="m994.7 1083.5c-.8-2.6-2.7-3.5-2.7-3.5s-3-2.1-6 .9c-1.9 1.9-2.6 4-2.6 4s-1.3 2.8 1 2.7c0 0 6.7.8 9.8-1.3 1.1-.8.5-2.8.5-2.8m-10 16.8c6.5 1.8 12.9-3.6 12.9-3.6 1.5-.9 2.1-.4 2.1-.4 1.4 1.1.1 2.4.1 2.4-6.3 8.3-15.1 7.4-15.1 7.4-10.8-.4-13.6-8-13.6-8-3.7-9.6 3.6-16.3 3.6-16.3 8.4-9.2 20.3-5.6 20.3-5.6 10.9 3.4 7.8 11.7 7.8 11.7-.6 7.4-21.9 4.2-21.9 4.2-1.8 6.5 3.8 8.2 3.8 8.2z" fill="#231815"/><path d="m1013.1 1085.8-4.5 12.4s-.6 2-3.2 2.6c0 0-2.7.3-2.7 2.6 0 0-.9 3.6 9.5 3.3 0 0 10.1.7 10.4-2.6 0 0 .5-1.8-2.6-3.1-2.3-.9-1.5-2.2-1.5-2.2l4.3-11.9c.9-2.1 2.1-3.3 2.1-3.3 1.2-1.3 1.3.3 1.3.3s.7 3.8 4.9 3.8c0 0 4.8-.1 5.1-5.6 0 0 0-4.8-5.1-5.2 0 0-3.4-.7-9.4 4.4 0 0-.9 1.2-1-.8 0 0-.4-4.7-6.7-4.7 0 0-7.6.3-7.7 6.3 0 0 .1 3.9 3.8 3.9 0 0 1.7.2 2.5-.7 0 0 1-.6.5.5" fill="#231815"/><path d="m1035.5 1094.1c-1.3 1.5-1.4 3.3-1.4 3.3 0 3.4 4.1 5.6 4.1 5.6 8 5 18.5 1.8 18.5 1.8 11-2.8 10-8.4 10-8.4.4-4.1-3.7-5.9-3.7-5.9-2.4-1.6-10.5-4.1-10.5-4.1-4.7-1.6-4.1-4-4.1-4 0-3.4 6.8-3.5 6.8-3.5 4.4 0 3.6 1.1 3.6 1.1-2.2.8-2.6 1.6-2.4 3.3.3 2.1 2.5 3.5 5.9 3 3-.4 4.6-2 4.8-3.8.3-1.6-.4-2.5-.4-2.5s-1.9-4.5-13.6-4.9c0 0-8.8 0-12.8 4.6-.1.1-.1.1-.2.2-2 2.2-1.8 4.9-1.8 4.9.1 3.9 3.3 5.5 3.3 5.5s3.3 2.3 9.7 4c5.3 1.4 3.7 4.1 3.7 4.1-1.4 2.8-5.8 2.4-5.8 2.4-4 0-6.1-1.8-6.1-1.8-.7-.6.1-.7.1-.7 1.4-1 1.6-2.5 1.2-3.9-.7-2-3.1-2.6-6.2-1.9-1.1.4-2 1-2.7 1.6" fill="#231815"/><path d="m987.4 1051.3v-7c0-.5-.9-1-.9-1s-.8-.6-.6-1.4c0 0 0-.8 1.5-.8h4.8c1.5 0 1.4.8 1.4.8.3.8-.7 1.4-.7 1.4s-.8.5-.8 1.3v12.9s.1 1.2-1.7 1.2c-.4 0-.8-.2-1.5-.9l-8.2-9.1c-.8-.6-.7.6-.7.6v5.8s0 .7.7 1c0 0 .7.3.7 1.1 0 0 .1 1.2-1.4 1.2h-5c-1.5 0-1.5-1.2-1.5-1.2 0-.8.8-1.1.8-1.1.7-.2.7-1 .7-1v-10.3c0-1.4-.9-1.5-.9-1.5s-1-.3-.7-1.4c0 0 .3-.9 1.6-.8h2.6s.6 0 .9.2z" fill="#231815"/><path d="m1060 1051.3v-7c0-.5-.9-1-.9-1s-.8-.6-.6-1.4c0 0 0-.8 1.4-.8h4.8c1.5 0 1.5.8 1.5.8.2.8-.7 1.4-.7 1.4s-.8.5-.8 1.3v12.9s.1 1.2-1.7 1.2c-.4 0-.8-.2-1.5-.9l-8.2-9.1c-.8-.6-.7.6-.7.6v5.8s0 .7.7 1c0 0 .8.3.8 1.1 0 0 0 1.2-1.5 1.2h-4.9c-1.5 0-1.5-1.2-1.5-1.2.1-.8.8-1.1.8-1.1.7-.2.7-1 .7-1v-10.3c0-1.4-.9-1.5-.9-1.5s-1-.3-.7-1.4c0 0 .3-.9 1.6-.8h2.6s.6 0 .9.2z" fill="#231815"/><path d="m952.4 1056.1c-.7-.2-.7-1.1-.7-1.1v-9.9c0-1.3.9-1.8.9-1.8s1-.6.8-1.4c0 0 0-.8-1.5-.8h-5c-1.5 0-1.5.8-1.5.8-.3.8.7 1.4.7 1.4s.9.4.9 1.8v3s0 .8-.7.8h-5.8c-.7 0-.7-.8-.7-.8v-3c0-1.3.9-1.8.9-1.8s1-.6.7-1.4c0 0 .1-.8-1.4-.8h-5c-1.5 0-1.4.8-1.4.8-.2.8.7 1.4.7 1.4s.9.4.9 1.8v9.9s0 .9-.7 1.1c0 0-.9.3-.9 1.1 0 0-.1 1.2 1.4 1.2h5c1.5 0 1.4-1.2 1.4-1.2 0-.8-.9-1.1-.9-1.1-.7-.2-.7-1.1-.7-1.1v-3.2s0-.8.7-.8h5.8c.7 0 .7.8.7.8v3.2s0 .9-.7 1.1c0 0-.9.3-.9 1.1 0 0-.1 1.2 1.5 1.2h5c1.5 0 1.5-1.2 1.5-1.2-.1-.8-1-1.1-1-1.1" fill="#231815"/><path d="m1032.4 1056.1c-.7-.2-.7-1.1-.7-1.1v-9.9c0-1.3.9-1.8.9-1.8s1-.6.7-1.4c0 0 0-.8-1.5-.8h-5c-1.5 0-1.4.8-1.4.8-.3.8.7 1.4.7 1.4s.9.4.9 1.8v3s0 .8-.7.8h-5.8c-.7 0-.7-.8-.7-.8v-3c0-1.3.9-1.8.9-1.8s1-.6.7-1.4c0 0 0-.8-1.4-.8h-5c-1.4 0-1.4.8-1.4.8-.3.8.7 1.4.7 1.4s.9.4.9 1.8v9.9s0 .9-.7 1.1c0 0-.9.3-.9 1.1 0 0 0 1.2 1.4 1.2h5c1.5 0 1.4-1.2 1.4-1.2 0-.8-.9-1.1-.9-1.1-.7-.2-.7-1.1-.7-1.1v-3.2s0-.8.7-.8h5.8c.7 0 .7.8.7.8v3.2s0 .9-.7 1.1c0 0-.9.3-.9 1.1 0 0-.1 1.2 1.4 1.2h5c1.5 0 1.5-1.2 1.5-1.2 0-.8-.9-1.1-.9-1.1" fill="#231815"/><path d="m1039.6 1058.4h2.5c1.5 0 1.4-1.2 1.4-1.2 0-.8-.9-1.1-.9-1.1-.7-.2-.7-1.1-.7-1.1v-10.1c0-1.3.9-1.5.9-1.5s1-.3.7-1.4c0 0-.2-.8-1.4-.8h-5c-1.3 0-1.4.8-1.4.8-.3 1.1.7 1.4.7 1.4s.9.2.9 1.5v10.1s0 .9-.7 1.1c0 0-.9.3-.9 1.1 0 0-.1 1.2 1.4 1.2z" fill="#231815"/><path d="m964.3 1050.8h-1.7c-.3 0-.4-.1-.4-.2l1-2.2s.3-.9.6 0l.9 2.2c.1.1-.2.2-.4.2m8.7 6.4c0-.8-1.1-1.3-1.1-1.3-.3-.1-.4-.5-.4-.5l-5.4-13.4s-.2-.9-1.3-.9h-2.1c-1.1 0-1.3.9-1.3.9l-5.6 13s-.3.9-1.1 1.1c0 0-.7.3-.7 1.1 0 0 0 1.2 1.5 1.2h4c1.5 0 1.4-1.2 1.4-1.2-.1-.6-.5-.8-.7-.9-.1 0-.1-.1-.1-.1-.3-.3 0-.8 0-.8l.8-1.8c.1-.2.3-.5.5-.5h3.8c.4 0 .7.2.9.4l.8 1.9s.3.6 0 .8c0 0-.1.1-.1.1-.3.1-.8.3-.8.9 0 0 0 1.2 1.5 1.2h4.3c1.3 0 1.2-1.2 1.2-1.2z" fill="#231815"/><path d="m1007.9 1045.7c2.5 1.2 3.6-.7 3.6-.7 1.8-2.6.7-3.6.7-3.6-1.1-.6-2.3.5-2.3.5-1.2 1.4-2.7.4-2.7.4-2.4-1.4-4.8-1.4-4.8-1.4-1.3 0-1.8 0-2.7.3-5.4 1.4-5 4.4-5 4.4-.5 4.8 7.4 5.6 7.4 5.6 4.6.6 4.1 3 4.1 3-.3 2.1-2.9 1.7-2.9 1.7-3.4-.1-4.5-1.8-4.5-1.8-2-2.2-3.8.6-3.8.6-1.4 1.7-1.4 2.8-1.4 2.8-.1 1.2.9 1.4 1.6 1.2.6-.1.9-.5.9-.5 1.4-1.1 2.6-.5 2.6-.5 4.7 1.2 5.5 1.2 5.5 1.2 8.2.8 7.9-5.1 7.9-5.1.4-4.8-6.2-5.3-6.2-5.3-3.8-.5-5.2-1.6-5.2-1.6-.9-.6-.7-1.5-.7-1.5 0-.9.7-1.3.7-1.3s2.1-1.2 4.8.3z" fill="#231815"/></svg>