<svg height="35" viewBox="0 0 240 70" width="120" xmlns="http://www.w3.org/2000/svg"><path d="m23.81 11.24-11.13 49.23c1.53-.55 3.13-1.03 4.77-1.46l8-43.72c-.6-1.21-1.15-2.57-1.64-4.05" fill="#33b495"/><path d="m22.29 4.99c-.07-.41-.14-.83-.2-1.25l-20.62 62.52c1.03-.75 2.13-1.45 3.28-2.12z" fill="#94cfbf"/><path d="m27.9 19.08-3.8 38.62c1.83-.26 3.69-.43 5.59-.53l1.94-35.55c-1.32-.35-2.58-1.23-3.73-2.54m12.56-3.78 7.98 43.65c1.64.41 3.23.88 4.77 1.42l-11.11-49.13c-.48 1.49-1.03 2.85-1.64 4.06" fill="#33b495"/><path d="m61.12 63.96c1.14.65 2.22 1.33 3.25 2.06l-20.54-62.27-.2 1.25z" fill="#94cfbf"/><path d="m34.29 21.63 1.93 35.54c1.9.08 3.76.25 5.59.49l-3.79-38.58c-1.15 1.31-2.4 2.19-3.73 2.55" fill="#33b495"/><path d="m135.43 34.12v-1.29h-3.97v-7.29h4.31v-1.29h-4.31v-.01h-1.3v19.02h1.3v-9.14zm-41.49-9.88h-1.46l-2.81 19.02h1.31l.95-6.42h2.56l.95 6.42h1.31zm-1.82 11.3 1.09-7.37 1.09 7.37zm122-11.3h-1.46l-2.82 19.02h1.31l.95-6.42h2.56l.95 6.42h1.3zm-1.82 11.3 1.1-7.37 1.09 7.37zm23.42-11.3h-1.45l-2.82 19.02h1.32l.95-6.42h2.56l.95 6.42h1.31zm-1.81 11.3 1.08-7.37 1.09 7.37zm-116.59-8.08c-.51-2.36-2.03-3.11-3-3.22h-2.33v19.02h2.04c.98 0 2.73-.66 3.28-3.23.62-2.86.57-6.16.57-6.28.01-.14.06-3.43-.56-6.29m-1.27 12.29c-.48 2.22-1.92 2.21-2.13 2.2h-.64v-16.43h.69c.01 0 1.58-.1 2.07 2.2.59 2.71.54 5.96.54 6.02.01.03.07 3.3-.53 6.01m-41.86 1.61v-7.9h-2.76v1.29h1.47v6.61c0 .33-.28.61-.61.61h-1.96c-.34 0-.61-.28-.61-.61v-15.21c0-.34.27-.61.61-.61h1.96c.33 0 .61.27.61.61v4.35h1.29v-4.35c0-1.05-.86-1.9-1.9-1.9h-1.96c-1.05 0-1.91.85-1.91 1.9v15.21c0 1.04.84 1.88 1.87 1.9h2.03c1.03-.02 1.87-.87 1.87-1.9m153.2-17.12h-1.39l-3.24 8.33v-8.33h-1.29v19.02h1.29v-7.12h.01l.84-2.17 2.5 9.29h1.34l-3.05-11.35zm-121.63 0v13.4l-3.24-13.4h-1.31v19.02h1.3v-13.53l3.25 13.53h1.29v-19.02zm59.93 0v13.4l-3.24-13.4h-1.3v19.02h1.3v-13.53l3.24 13.53h1.3v-19.02zm-11.25 0h-1.97c-1.04 0-1.89.85-1.89 1.9v15.21c0 1.04.84 1.88 1.87 1.9h2.04c1.03-.02 1.87-.86 1.87-1.9v-15.2c-.01-1.05-.87-1.91-1.92-1.91m.6 17.12c0 .33-.27.61-.6.61h-1.97c-.33 0-.6-.28-.6-.61v-15.21c0-.34.26-.61.6-.61h1.97c.33 0 .6.27.6.61zm38.03-17.12h-1.97c-1.04 0-1.89.85-1.89 1.9v15.21c0 1.04.83 1.88 1.86 1.9h2.04c1.04-.02 1.87-.86 1.87-1.9v-15.2c0-1.05-.86-1.91-1.91-1.91m.61 17.12c0 .33-.27.61-.61.61h-1.97c-.33 0-.61-.28-.61-.61v-15.21c0-.34.27-.61.61-.61h1.97c.34 0 .61.27.61.61zm-109.5-4.54c-.03-.16-.27-1.18-.75-2.05.23-.13.48-.32.71-.61.75-.91 1.14-2.42 1.14-4.52 0-2.09-.38-3.62-1.14-4.52-.66-.79-1.39-.87-1.63-.88h-3.11v19.02h1.3v-8.21h1.37c.38.51.71 1.44.85 2.07l1.44 6.14h1.33zm-1.69-3.07h-1.79v-8.22h1.79c.13.02 1.49.23 1.49 4.11s-1.36 4.1-1.49 4.11m62.47 3.07c-.03-.16-.27-1.18-.75-2.05.23-.13.48-.32.71-.61.75-.91 1.13-2.42 1.13-4.52 0-2.09-.38-3.62-1.13-4.52-.66-.79-1.39-.87-1.64-.88h-3.12v19.02h1.3v-8.21h1.38c.38.51.71 1.44.85 2.07l1.44 6.14h1.33zm-1.7-3.07h-1.8v-8.22h1.8c.12.02 1.49.23 1.49 4.11.01 3.88-1.36 4.1-1.49 4.11m62.15 7.61v-6.28c0-1.04-.85-1.9-1.9-1.9h-1.96c-.34 0-.6-.27-.6-.6v-6.43c0-.34.27-.61.6-.61h1.96c.33 0 .61.27.61.61v4.35h1.29v-4.35c0-1.05-.85-1.9-1.9-1.9h-1.96c-1.05 0-1.9.85-1.9 1.9v6.43c0 1.05.85 1.89 1.9 1.89h1.96c.33 0 .61.27.61.61v6.28c0 .33-.28.61-.61.61h-1.96c-.34 0-.6-.28-.6-.61v-4.59l-1.3.01v4.58c0 1.04.84 1.88 1.87 1.9h2.03c1.03-.02 1.86-.87 1.86-1.9m-28.37-15.83v-1.29h-5.83v1.29h2.23v17.73h1.29v-17.73zm-50.56 23.56h-.05l-.06.04h-1.91c.1-.27.21-.6.34-1.01.09 0 .15-.06.17-.15l-.03-.05-.54-.21h-.04l-.03.03c-.39 1.48-1.04 2.76-1.81 3.59l-.01.02.01.04c.11.1.25.25.31.37l.04.02.04-.02c.49-.56.92-1.23 1.27-2h1.94c-.49 2.21-1.43 3.77-2.86 4.76l-.02.04.01.03c.12.13.23.31.28.44l.03.03h.02l.03-.01c1.59-1.15 2.52-2.8 3.12-5.52l.09-.13-.02-.06zm-.41-1.63-.04.02-.2.26v.06c.26.3.57.79.73 1.16l.03.02h.01l.04-.02.21-.26.02-.03c-.19-.4-.5-.9-.76-1.2zm.82-.24-.04.02-.2.26v.06c.25.3.56.77.74 1.15l.04.03h.01l.03-.02.21-.25v-.05c-.16-.37-.49-.87-.76-1.19zm3.61 1.5h3.27l.05-.02v-.57l-.05-.05h-3.27l-.05.05v.55zm3.51 1.43-.04-.01-.06.05h-3.96l-.04.05v.56l.04.05h3.75c-.36 1.82-1.29 2.98-2.85 3.54l-.03.01-.01.04c.08.13.19.33.25.48l.02.02.02.01h.02c1.79-.71 2.71-1.99 3.17-4.4l.08-.09-.01-.06zm7.65-.87-.05-.01-.04.03c-.69 2.29-2.06 3.91-4.05 4.8l-.03.02.01.04.31.65.03.02.04-.01c.04-.04.08-.12.09-.2 1.92-.93 3.33-2.64 4.07-4.95l-.02-.06c-.11-.08-.25-.19-.36-.33m-2.61.83.05-.03.21-.52-.01-.05c-.39-.4-1.05-.83-1.72-1.13h-.04l-.03.03-.18.5v.05c.54.27 1.24.7 1.69 1.14zm9.41-1.59h-.06l-.07.06h-3.89l-.05.04v.55l.05.05h3.7c-.36 2.52-1.46 4.27-3.18 5.08l-.02.01.01.05c.07.12.2.34.26.47l.02.02.02.01.03-.01c1.92-.97 3.03-2.85 3.48-5.94l.08-.11-.02-.05zm6.98.32h-3.98l-.04.05v5.46l.04.04h.4l.05-.04v-.49h3.07v.48l.04.04h.42l.05-.04v-5.44zm-3.53.65h3.07v3.72h-3.07zm8.05.62.04-.03.22-.52-.01-.05c-.4-.4-1.06-.83-1.73-1.13h-.04l-.02.03-.18.5.02.06c.51.26 1.21.69 1.66 1.13zm2.61-.83-.04-.01-.04.03c-.7 2.29-2.06 3.91-4.06 4.8l-.03.02v.04l.31.65.02.02h.02l.03-.01c.04-.04.08-.12.09-.2 1.93-.93 3.34-2.64 4.08-4.95l-.02-.06c-.09-.07-.23-.19-.36-.33m4.09.89h-.04l-.02.01v-2.17c.09-.03.14-.1.15-.2l-.04-.05-.58-.05-.04.01-.02.02v7.17l.05.05h.43l.04-.05v-4.04c.61.36 1.39.88 1.94 1.31h.04l.03-.03.23-.55-.02-.05c-.58-.46-1.47-1.03-2.15-1.38m7.11.45h2.05l.05-.05v-.54l-.05-.05h-2.23c.06-.72.07-1.4.07-2v-.01c.08-.04.12-.08.12-.16l-.01-.03-.03-.01-.51-.04-.03.01-.02.03v.23c0 .61-.01 1.29-.06 1.99h-2.1l-.04.02v.56l.04.05h2.03c-.26 1.91-.96 3.17-2.13 3.85l-.03.02v.05c.09.11.2.29.25.43l.03.03h.04c1.16-.72 1.89-1.92 2.22-3.71.43 1.88 1.15 3.09 2.18 3.7h.04l.02-.01c.06-.17.18-.38.27-.48l.01-.03-.01-.04c-1.07-.58-1.8-1.85-2.17-3.81m8.82 3.85c-.42-.24-.8-.6-1.13-1.09.41-.76.7-1.73.85-2.87v-.01l.04-.09-.03-.05-.2-.11-.03-.01h-.04l-.05.02h-1.96v-1.52h2.46l.05-.05v-.48l-.05-.05h-2.85l-.04.05v2.25c0 1.4-.08 2.98-.71 4.13l.01.06c.07.06.21.23.26.31l.04.02.04-.02c.49-.92.75-2.26.78-4.13h.3l-.22.08-.04.05c.19.94.46 1.74.8 2.39-.33.5-.71.88-1.15 1.11l-.02.03.01.04c.07.1.16.28.21.42l.03.03.02.01.02-.01c.45-.28.85-.67 1.17-1.14.32.48.69.87 1.11 1.13h.04l.03-.02c.06-.14.16-.33.25-.43l.01-.03zm-2.09-3.63h1.31c-.12.76-.33 1.45-.63 2.04-.3-.56-.52-1.25-.68-2.04m-1.18 1.19c0-.55-.18-1.1-.55-1.68.21-.71.4-1.45.53-1.98l.04-.08-.02-.04-.23-.2-.05-.01-.05.02h-1.26l-.04.05v6.85l.04.05h.33l.04-.05v-6.34h.67c-.11.5-.27 1.21-.45 1.79v.04c.36.55.55 1.07.56 1.55 0 .62-.17.62-.38.62l-.22-.03-.04.02v.05c.05.13.08.32.08.44l.05.05c.46.02.95.02.95-1.12" fill="#231815"/></svg>