<svg enable-background="new 0 0 218 218" height="218" viewBox="0 0 218 218" width="218" xmlns="http://www.w3.org/2000/svg" xmlns:xlink="http://www.w3.org/1999/xlink"><clipPath id="a"><circle cx="109" cy="109" r="108.58"/></clipPath><circle cx="109" cy="109" fill="#e64290" r="108.58"/><g clip-path="url(#a)" fill="none" stroke="#e968a1" stroke-miterlimit="10" stroke-width="19.4661"><path d="m-333.281 486.557 485.273-603.435"/><path d="m-263.957 486.557 485.273-603.435"/><path d="m-194.632 486.557 485.275-603.435"/><path d="m-125.306 486.557 485.273-603.435"/><path d="m-55.982 486.557 485.273-603.435"/></g><g fill="#fff"><path d="m66.854 52.866v-1.016c0-2.373 0-4.521 2.995-4.521 3.39 0 3.39 1.809 3.39 4.521v1.017c1.582 0 3.786 0 3.786 2.995 0 2.43-.961 3.391-3.277 3.391h-.509v20.962c1.526 0 3.786 0 3.786 2.995 0 3.277-1.864 3.277-4.521 3.277h-3.334c.622.339.904.734 3.616 4.237 2.261 2.995 2.486 3.334 2.486 4.351 0 1.695-1.751 3.277-3.164 3.277-1.582 0-2.712-1.469-3.729-2.825-1.412-1.864-3.672-4.915-3.672-6.441 0-.112 0-1.751 1.412-2.599h-7.062c1.412.734 1.694 2.203 1.694 2.655 0 1.978-2.825 6.216-3.729 7.516-1.356 1.808-2.317 2.938-3.899 2.938s-3.164-1.412-3.164-2.994c0-.961.227-1.356 2.656-4.634.508-.678 2.43-3.955 2.825-4.576.396-.565.564-.735.847-.904h-2.599c-2.316 0-4.521 0-4.521-2.995 0-2.542 1.243-3.277 3.334-3.277h1.017v-20.964c-1.864 0-4.068 0-4.068-2.995 0-2.43.961-3.391 3.277-3.391h.791c0-3.333 0-5.311 2.995-5.311 3.334 0 3.334 1.639 3.334 5.311zm-7.006 6.386v2.881h7.006v-2.881zm0 8.871v2.881h7.006v-2.881zm0 8.983v3.107h7.006v-3.107zm25.03 5.312c-.339 8.023-1.864 12.148-2.316 13.392-.282.678-1.073 2.938-3.164 2.938-1.3 0-3.898-.903-3.898-2.938 0-.791 1.355-4.068 1.525-4.747 1.355-4.689 1.582-9.605 1.582-14.69v-23.11c0-3.447 1.921-4.577 5.255-4.577h11.696c2.316 0 4.689 1.017 4.689 4.464v39.495c0 6.159-4.803 6.159-6.555 6.159-1.694 0-8.645-.452-8.645-4.068 0-1.469 1.073-3.503 2.882-3.503.791 0 4.351.961 5.085.961.848 0 .904-.509.904-1.074v-8.701h-9.04zm9.041-20.341v-5.707c0-.509-.057-1.187-1.074-1.187h-7.119c-.848 0-.848.508-.848 1.187v5.707zm0 13.674v-7.346h-9.041v7.346z"/><path d="m119.049 94.679c0 2.317 0 4.521-2.994 4.521-3.334 0-3.334-1.864-3.334-4.521v-41.19c0-1.978.734-4.521 4.238-4.521h13.561c3.785 0 4.916 2.43 4.916 4.295v11.695c0 1.526-.227 4.916-5.424 4.916h-10.963zm9.832-38.14c0-1.751 0-1.921-1.186-1.921h-7.799c-.848 0-.848.509-.848.961v.96zm-9.832 5.425v2.091h8.928c.904 0 .904-.34.904-1.018v-1.073zm24.523 10.396c1.074 0 5.086 0 5.086 4.237v12.939c0 2.769-2.092 4.464-4.578 4.464h-13.787c-2.711 0-5.141-1.356-5.141-4.068v-13.334c0-3.051 2.146-4.237 4.35-4.237h14.07zm-.904 7.911v-1.355c0-.735-.113-1.131-1.242-1.131h-9.324c-.848 0-.848.904-.848 1.188v1.299h11.414zm-11.414 5.424v1.3c0 .678 0 1.242.848 1.242h9.436c.961 0 1.131 0 1.131-.791v-1.751zm13.504-15.821c-2.824 0-3.785-.734-4.18-1.073-1.639-1.187-1.695-3.786-1.695-3.843v-11.809c0-.283 0-4.238 4.746-4.238h13.334c.17 0 4.352.057 4.352 4.634v40.061c0 5.029-3.561 5.142-5.877 5.142-4.35 0-7.289 0-7.289-3.446 0-1.809 1.188-3.164 2.826-3.164.395 0 2.203.226 2.598.226.961 0 1.301-.226 1.301-1.582v-20.908zm10.115-13.335v-1.073c0-.396-.113-.848-1.018-.848h-7.684c-.904 0-.904.396-.904 1.921zm-9.605 5.425v1.187c0 .678.057.904 1.072.904h8.533v-2.091z"/><path d="m57.701 160.107c0 2.318 0 4.521-2.938 4.521-3.221 0-3.221-1.979-3.221-4.521v-41.076c0-4.805 4.238-4.805 5.255-4.805h7.571c2.825 0 5.368 1.414 5.368 5.199 0 3.729-1.073 7.232-1.412 8.363-.283.848-1.526 4.746-1.752 5.537.564.791 3.221 5.311 3.221 10.904 0 2.035 0 10.002-8.25 10.002-.564 0-2.43 0-3.842-.848zm0-12.203c.509-.34 1.017-.566 1.639-.566.282 0 1.525.17 1.808.17 1.526 0 2.373-.961 2.373-2.994 0-1.865-.564-6.104-2.203-9.436-.678-1.414-.904-1.809-.904-2.486 0-.623 1.074-3.787 1.243-4.465 1.413-5.537 1.413-6.045 1.413-6.779 0-.68-.34-.961-1.526-.961h-2.146c-.565 0-1.695 0-1.695 1.469v26.048zm21.076-6.16v14.918c2.09-.283 4.972-.791 6.271-.904.734-.057 2.769.451 2.769 3.164 0 2.938-1.412 3.221-4.577 3.842-3.785.734-9.267 1.412-13.108 1.412-2.712 0-3.107-2.824-3.107-3.445 0-2.996 1.469-3.109 5.65-3.447v-37.461c0-5.256 3.898-5.596 5.537-5.596h15.538c4.634 0 5.65 3.391 5.65 5.256v16.387c0 2.203-1.073 5.875-5.537 5.875h-4.973c.509 2.543.904 4.012 1.47 5.537 2.146-.959 2.599-1.186 6.667-3.559.791-.453 1.3-.51 1.639-.51 2.316 0 3.107 2.486 3.107 3.617 0 1.186-.396 1.412-1.469 2.26-1.018.791-3.503 2.43-6.441 3.842 2.6 2.939 4.294 3.844 6.498 4.973 1.073.564 1.695 1.525 1.695 2.656 0 1.582-1.131 3.672-3.108 3.672-3.051 0-14.013-5.537-16.442-22.488h-3.729zm14.125-17.008v-2.316c0-2.033-.848-2.033-2.146-2.033h-9.832c-1.355 0-2.146 0-2.146 2.033v2.316zm-14.125 6.104v4.633h11.979c1.299 0 2.146 0 2.146-2.033v-2.6z"/><path d="m133.57 134.908h-9.039c-2.316 0-4.521 0-4.521-2.996 0-3.275 1.865-3.275 4.521-3.275h24.521c2.316 0 4.52 0 4.52 2.994 0 3.277-1.863 3.277-4.52 3.277h-8.418v5.988h12.77c2.033 0 4.463 0 4.463 3.164s-2.486 3.164-4.463 3.164h-12.77v9.494h16.725c2.146 0 4.463 0 4.463 3.164 0 3.502-2.146 3.502-4.463 3.502h-21.359c-5.707 0-11.131-2.654-14.633-7.176-1.188 2.883-2.826 5.82-3.504 6.668-.848 1.131-1.582 1.582-2.656 1.582-1.863 0-3.898-1.695-3.898-3.277 0-.848.34-1.412.621-1.865 5.143-8.361 6.16-13.842 6.781-17.232.227-1.244.508-2.883 2.994-2.883 1.018 0 3.561.51 3.561 2.939 0 .395-.17 2.486-1.301 6.555 4.465 6.779 7.855 7.344 9.605 7.627zm0-16.443v-1.695c0-2.711.283-4.067 3.674-4.067s3.391 1.808 3.391 5.763h15.48c5.256 0 5.537 3.674 5.537 4.633v6.047c0 2.543 0 4.52-3.389 4.52-3.334 0-3.334-2.316-3.334-4.52v-3.107c0-1.018-.057-1.244-1.357-1.244h-33.562c-1.186 0-1.186.283-1.186 1.695v2.656c0 2.146 0 4.52-3.164 4.52-3.221 0-3.221-2.373-3.221-4.52v-6.215c0-1.809.904-4.465 4.689-4.465h16.442z"/></g></svg>