<svg height="38" viewBox="0 0 76 76" width="38" xmlns="http://www.w3.org/2000/svg"><circle cx="38" cy="38" fill="#19517c" r="37.38"/><path d="m57.23 21.97h-.1l-.1-.58h-.1l-.1-.39h-.1v-.19l-.19-.1v-.19l-.29-.19v-.19h-.1l-.29-.39h-.19l-.19-.29h-.2l-.1-.19h-.19v-.1h-.19v-.1h-.29v-.1h-.2v-.09c-.69-.27-1.96-.2-2.9-.2h-28.77v.1c-.39.07-.78.13-1.16.19v.1h-.2v.1l-.58.19-.1.19h-.19l-.19.29-.68.58v.19l-.19.1-.19.58h-.1v.2h-.09v.29c-.28.72-.29 1.66-.29 2.71v27.12c0 .85 0 1.61.19 2.23v.39h.1v.29h.09l.19.58h.1v.2l.19.1v.19l.48.39.39.48h.19l.1.2h.19l.1.19h.19v.1h.29v.1h.19v.1c.35.03.71.06 1.06.1v.1h30.71v-.1h.48v-.1h.38v-.1h.29v-.1l.38-.1v-.1h.19v-.1l.29-.1.1-.2h.19l.39-.48.19-.1v-.19l.2-.1v-.19l.19-.1v-.19h.1l.1-.39h.1l.1-.58h.1c.03-.64.06-1.29.1-1.94v-28c-.01-.69-.04-1.4-.07-2.12zm-11.62 2.04v-.19l.58-.49v-.1h.2v-.1h.38v-.1h3.49c.48 0 1.01-.01 1.36.1h.39l.78.68c.25 1.22.19 2.86.19 4.36 0 .55.09 1.27-.19 1.55-.33 1.27-3.05.87-4.65.87h-1.64v-.1l-.39-.1v-.1l-.48-.39c-.25-1.22-.19-2.86-.19-4.36-.03-.53-.12-1.25.17-1.53zm-14.83 12.3.19-.97h.1v-.19h.1v-.29h.1v-.19h.1v-.2l.19-.1.1-.39.19-.1v-.19l.29-.19v-.19l.77-.68.39-.49h.19l.19-.29h.19l.1-.19h.19l.1-.19h.19v-.1l.39-.1v-.1h.29v-.1h.19v-.1h.29v-.1h.29v-.1h.29v-.1c.35-.12.92.01 1.16-.19.98 0 1.72.06 2.42.29h.39v.1l.58.1v.1l.58.19v.1h.19v.1l.39.1v.1l.29.1.1.19h.19l.29.39h.19l.1.19.58.48v.19l.39.29v.19l.19.1.1.29h.1l.1.39.2.1v.19h.09v.29h.1v.2h.09l.1.58h.1v.29h.1c.13.38.36 2.33.19 2.91l-.58 2.04h-.1l-.09.39h-.1v.19l-.19.1-.1.39-.19.1v.19l-.39.29v.19l-.58.48-.29.39h-.2l-.19.29h-.19l-.19.29-.58.2-.1.19h-.2v.1h-.29v.1h-.2v.1h-.29v.1h-.29v.1h-.29v.1h-.39v.1h-.58v.1c-.53.15-2.34-.07-2.71-.2v-.1l-.68-.1v-.1h-.19v-.1h-.29v-.1l-.39-.1v-.1l-.39-.1-.1-.2-.39-.1-.19-.29h-.19c-.16-.2-.32-.39-.49-.58l-.87-.78c-1-1.42-2-3.97-1.24-6.28zm21.7 16.27c-.53.42-1.27.39-2.23.39h-25.86v-.1h-.29v-.1h-.19l-.58-.48c-.53-.79-.29-3.34-.29-4.65v-8.23c0-1.44-.13-3.18.1-4.46h3.39c-.03.51-.17 1.04-.29 1.45v3.19h.1v.68h.1v.39h.1v.39h.1v.39h.1v.29h.1v.29h.1v.29h.1v.2h.1v.29h.1l.19.58h.09v.19h.1l.1.39.19.1.1.39.19.1v.19l.29.2v.19l.29.19v.2l.48.39v.19l.19.1.49.58h.19l.48.58.29.1.1.19h.19l.1.19.29.1v.1h.19l.1.19.58.19v.1h.2v.1h.19v.1l.58.2v.1h.29v.1h.19v.1h.29v.1h.29v.1h.39v.1h.39v.1h.39v.1h.58v.1h.87v.1c.45.13 1.63-.01 1.94-.1h.87v-.1h.48v-.1h.48v-.1h.39v-.1h.29v-.1l.87-.2v-.1h.19v-.1h.29v-.1l.58-.19v-.1l.39-.1.1-.19.39-.1v-.1l.29-.1.1-.2h.19l.19-.29h.19l.29-.39h.19l.68-.77.68-.58v-.2l.29-.2.1-.29.19-.1v-.2l.19-.1v-.2l.19-.1.1-.38.19-.1.1-.39h.1v-.19h.1l.19-.58h.1v-.29h.1v-.19h.1v-.29h.1v-.29h.1l.1-.68h.1l.1-.97h.1v-.87c.1-.34.23-1.66.1-2.13h-.1v-.87h-.1v-.48h-.1l-.1-.58.1-.1c.95 0 2.65-.18 3.39.1v12.98c-.02 1.37.23 3.98-.51 4.56z" fill="#fff"/></svg>