<svg height="34" viewBox="0 0 180 68" width="90" xmlns="http://www.w3.org/2000/svg"><path d="m19.6 12.69s-1.03-.98-1.33-2.51c0 0-1.13-2.36-4.53-.63 0 0-3.18 1.14-11.12 13.66 0 0-1.74 2.27-.51 3.92 0 0 1.85 1.33 4.33-.83l9.06-6.89s1.76-1.63 2.88-1.63h2.41s1.23-.21.8 1.12l-8.76 25.36s-.73 2.87-2.67 3.6c0 0-4.85 1.64-4.74 4.1 0 0-.42 3.18 4.11 3.18h12.07s5.96.31 5.96-3.39c0 0 .73-2.26-3.7-3.7 0 0-1.75-.08-.62-3.17l9.17-25.25s.32-1.64 1.97-1.53c0 0 2.06-.42 3.5 2.25 0 0 4.01 5.85 6.07 8.31 0 0 .82 2.06 2.99 1.12 0 0 2.05.23.09-7.38 0 0-1.64-9.03-4.61-12.22 0 0-1.86-1.75-4.75.72l-.92 1.04s.21.75-2.48.75zm32.8 23.64-3.21 9.6s-.12 1.53-1.76 1.84c0 0-3.83.73-3.73 3.11 0 0-.86 2.81 8.6 3.09 0 0 9.51.81 9.51-2.89 0 0 .31-2.07-3.51-3.32 0 0-1.1-.19-.48-2.16l4.45-13.52s1-2.37-2.84-2.89c0 0-4.16-.34-7.62.55 0 0-2.88.7-2.47 2.61 0 0-.09 1.99 3.03 2.21-.01.02.75.12.03 1.77m6.92-9.61c3.48 0 5.45-1.75 5.45-3.9 0-2.17-1.98-3.93-5.45-3.93s-5.45 1.77-5.45 3.93c.01 2.15 1.98 3.9 5.45 3.9m25.44 5.79s-5.08-1.85-8.09 6.6c0 0-2.99 8.17 1.14 9.31 0 0 4.45 1.85 6.33-3.61 0 0 2.06-4.84 2.79-8.67-.01 0 .29-2.38-2.17-3.63m6-3.28c2.69-1.75 4.96-.31 4.96-.31 3.11 1.74 1.24 6.29 1.24 6.29-4.02 12.79-6.93 18.58-6.93 18.58-6.52 14.93-18.53 13.41-18.53 13.41-9.83 0-10.45-6.93-10.45-6.93-.31-4.83 4.33-4.83 4.33-4.83 4.47 0 4.78 3.71 4.78 3.71 0 2.68-3 2.68-3 2.68 1.35 2.35 4.66 1.76 4.66 1.76 6.52-1.45 9.42-10.42 9.42-10.42.62-2.26-1.35-1.14-1.35-1.14-7.97 2.17-11.18-3.4-11.18-3.4-4.66-7.42 1.54-14.86 1.54-14.86 7.24-8.87 16.88-3.83 16.88-3.83 1.44.84 3.63-.71 3.63-.71zm27.8 6.63c-.69-2.16-2.18-2.89-2.18-2.89s-2.53-1.69-4.95.73c-1.55 1.54-2.17 3.29-2.17 3.29s-1.08 2.29.82 2.23c0 0 5.48.65 8.07-1.1.97-.65.41-2.26.41-2.26m-8.17 13.81c5.39 1.46 10.66-2.98 10.66-2.98 1.25-.73 1.76-.32 1.76-.32 1.16.93.12 1.97.12 1.97-5.18 6.81-12.43 6.07-12.43 6.07-8.9-.3-11.18-6.61-11.18-6.61-3.01-7.93 3.01-13.4 3.01-13.4 6.94-7.62 16.76-4.65 16.76-4.65 9 2.8 6.43 9.61 6.43 9.61-.53 6.08-18.03 3.51-18.03 3.51-1.76 5.47 2.9 6.8 2.9 6.8zm23.4-11.92-3.74 10.27s-.48 1.65-2.63 2.13c0 0-2.2.27-2.2 2.13 0 0-.76 2.96 7.87 2.75 0 0 8.36.62 8.55-2.13 0 0 .41-1.5-2.13-2.53-1.86-.78-1.23-1.81-1.23-1.81l3.58-9.84c.76-1.71 1.71-2.75 1.71-2.75.98-1.02 1.05.29 1.05.29s.55 3.15 4.06 3.15c0 0 3.94-.05 4.22-4.61 0 0 .06-3.98-4.22-4.26 0 0-2.77-.62-7.79 3.65 0 0-.77 1.02-.83-.7 0 0-.34-3.91-5.52-3.91 0 0-6.29.27-6.35 5.22 0 0 .06 3.17 3.11 3.17 0 0 1.44.14 2.01-.61 0-.01.89-.56.48.39m18.42 6.86c-1.09 1.24-1.12 2.69-1.12 2.69 0 2.83 3.38 4.61 3.38 4.61 6.55 4.13 15.25 1.45 15.25 1.45 9.05-2.27 8.28-6.96 8.28-6.96.29-3.36-3.02-4.88-3.02-4.88-1.95-1.3-8.63-3.36-8.63-3.36-3.87-1.33-3.39-3.31-3.39-3.31 0-2.83 5.59-2.88 5.59-2.88 3.58 0 2.96.89 2.96.89-1.81.67-2.19 1.32-1.97 2.71.25 1.73 2.04 2.92 4.84 2.51 2.43-.36 3.8-1.68 3.92-3.16.22-1.36-.29-2.06-.29-2.06s-1.58-3.72-11.25-3.99c0 0-7.2.02-10.53 3.8l-.16.19c-1.69 1.8-1.48 4.07-1.48 4.07.09 3.22 2.73 4.53 2.73 4.53s2.68 1.93 8 3.31c4.35 1.13 3.03 3.36 3.03 3.36-1.16 2.28-4.76 2.01-4.76 2.01-3.31 0-5.03-1.48-5.03-1.48-.6-.47.13-.62.13-.62 1.12-.83 1.33-2.07.95-3.15-.55-1.64-2.57-2.12-5.13-1.57-.98.31-1.76.76-2.3 1.29m-39.59-35.28v-5.73c0-.4-.71-.79-.71-.79s-.68-.5-.5-1.19c0 0-.02-.67 1.2-.67h3.98c1.22 0 1.18.67 1.18.67.21.68-.56 1.11-.56 1.11s-.67.38-.67 1.1v10.67s.06 1.01-1.4 1.01c-.35 0-.65-.18-1.22-.74l-6.75-7.48c-.66-.48-.61.46-.61.46v4.75s0 .61.61.78c0 0 .62.26.63.93 0 0 .04.96-1.19.96h-4.11c-1.24 0-1.19-.96-1.19-.96 0-.67.64-.93.64-.93.59-.16.59-.78.59-.78v-8.44c0-1.12-.74-1.26-.74-1.26s-.83-.3-.58-1.19c0 0 .23-.74 1.28-.67h2.14s.53-.03.76.21zm59.75 0v-5.73c0-.4-.71-.79-.71-.79s-.7-.5-.49-1.19c0 0-.02-.67 1.19-.67h3.98c1.21 0 1.19.67 1.19.67.19.68-.56 1.11-.56 1.11s-.68.38-.68 1.1v10.67s.07 1.01-1.38 1.01c-.37 0-.66-.18-1.22-.74l-6.77-7.48c-.65-.48-.59.46-.59.46v4.75s0 .61.59.78c0 0 .63.26.65.93 0 0 .03.96-1.21.96h-4.09c-1.24 0-1.21-.96-1.21-.96.03-.67.66-.93.66-.93.58-.16.58-.78.58-.78v-8.44c0-1.12-.73-1.26-.73-1.26s-.85-.3-.6-1.19c0 0 .24-.74 1.29-.67h2.13s.53-.03.75.21zm-88.61 3.95c-.59-.16-.59-.92-.59-.92v-8.12c0-1.1.73-1.44.73-1.44s.81-.5.61-1.19c0 0 .01-.67-1.19-.67h-4.1c-1.22 0-1.21.67-1.21.67-.2.68.61 1.19.61 1.19s.74.34.74 1.44v2.44s-.01.65-.58.65h-4.78c-.58 0-.59-.65-.59-.65v-2.44c0-1.1.74-1.44.74-1.44s.81-.5.61-1.19c0 0 .03-.67-1.19-.67h-4.11c-1.21 0-1.18.67-1.18.67-.2.69.6 1.19.6 1.19s.74.34.74 1.44v8.12s0 .75-.6.92c0 0-.74.26-.74.93 0 0-.06.96 1.18.96h4.11c1.23 0 1.19-.96 1.19-.96-.01-.67-.76-.93-.76-.93-.59-.16-.59-.92-.59-.92v-2.61s.01-.65.59-.65h4.78c.57 0 .58.65.58.65v2.62s0 .75-.59.92c0 0-.74.26-.75.93 0 0-.04.96 1.21.96h4.1c1.24 0 1.19-.96 1.19-.96-.03-.67-.76-.94-.76-.94m65.93 0c-.61-.16-.61-.92-.61-.92v-8.12c0-1.1.75-1.44.75-1.44s.8-.5.61-1.19c0 0 .02-.67-1.2-.67h-4.1c-1.21 0-1.19.67-1.19.67-.21.68.61 1.19.61 1.19s.73.34.73 1.44v2.44s0 .65-.58.65h-4.79c-.57 0-.58-.65-.58-.65v-2.44c0-1.1.74-1.44.74-1.44s.81-.5.61-1.19c0 0 .03-.67-1.18-.67h-4.12c-1.21 0-1.18.67-1.18.67-.21.69.6 1.19.6 1.19s.75.34.75 1.44v8.12s0 .75-.61.92c0 0-.73.26-.74.93 0 0-.04.96 1.18.96h4.12c1.22 0 1.18-.96 1.18-.96 0-.67-.76-.93-.76-.93-.59-.16-.59-.92-.59-.92v-2.61s.01-.65.58-.65h4.79c.58 0 .58.65.58.65v2.62s0 .75-.59.92c0 0-.74.26-.75.93 0 0-.04.96 1.19.96h4.1c1.25 0 1.2-.96 1.2-.96-.02-.67-.75-.94-.75-.94m5.86 1.9h2.07c1.22 0 1.19-.96 1.19-.96-.01-.67-.76-.93-.76-.93-.58-.16-.58-.92-.58-.92v-8.35c0-1.1.74-1.22.74-1.22s.82-.29.61-1.19c0 0-.17-.67-1.19-.67h-4.12c-1.05 0-1.18.67-1.18.67-.25.87.61 1.19.61 1.19s.73.12.73 1.22v8.35s0 .75-.59.92c0 0-.74.26-.75.93 0 0-.04.96 1.18.96zm-62.01-6.27h-1.38c-.27 0-.37-.09-.33-.17l.8-1.81s.24-.76.52-.04l.79 1.83c0 .13-.23.19-.4.19m7.23 5.31c-.02-.67-.9-1.08-.9-1.08-.21-.07-.34-.45-.34-.45l-4.48-11.01s-.21-.71-1.08-.71h-1.74c-.87 0-1.09.71-1.09.71l-4.62 10.69s-.26.76-.9.92c0 0-.62.26-.62.93 0 0 .01.96 1.24.96h3.32c1.22 0 1.2-.96 1.2-.96-.04-.5-.42-.7-.6-.77l-.09-.06c-.22-.25 0-.66 0-.66l.64-1.45c.11-.2.29-.44.45-.44h3.08c.35 0 .56.14.69.28l.69 1.6s.23.47 0 .66l-.11.07c-.21.07-.64.23-.68.76 0 0-.03.96 1.21.96h3.52c1.24.01 1.21-.95 1.21-.95zm28.69-9.5c2.06 1.01 2.97-.57 2.97-.57 1.5-2.15.58-2.97.58-2.97-.9-.53-1.88.43-1.88.43-.95 1.18-2.18.32-2.18.32-1.99-1.13-3.99-1.17-3.99-1.17-1.06 0-1.48.01-2.2.21-4.42 1.14-4.09 3.62-4.09 3.62-.42 3.94 6.06 4.57 6.06 4.57 3.74.54 3.39 2.49 3.39 2.49-.2 1.75-2.37 1.42-2.37 1.42-2.79-.08-3.71-1.52-3.71-1.52-1.6-1.84-3.12.51-3.12.51-1.18 1.41-1.11 2.28-1.11 2.28-.11.95.73 1.17 1.33 1.03.47-.11.74-.43.74-.43 1.11-.89 2.1-.44 2.1-.44 3.84.99 4.55.94 4.55.94 6.75.65 6.48-4.16 6.48-4.16.32-3.97-5.15-4.38-5.15-4.38-3.13-.44-4.24-1.29-4.24-1.29-.76-.52-.61-1.2-.61-1.2-.03-.72.61-1.07.61-1.07s1.72-.98 3.93.22z" fill="#fff"/></svg>