<svg xmlns="http://www.w3.org/2000/svg" width="38" height="38" viewBox="0 0 76 76"><circle fill="#00AEEB" cx="38" cy="38" r="37.38"/><path fill="#fff" d="M30.83 53.72c-4.49 0-8.66-1.3-12.17-3.55.61.06 1.25.11 1.9.11 3.71 0 7.13-1.28 9.86-3.41-3.49-.05-6.42-2.36-7.42-5.5.49.08.98.13 1.49.13.72 0 1.44-.09 2.08-.28-3.62-.73-6.36-3.93-6.36-7.79v-.06c1.08.56 2.3.92 3.59.95-2.11-1.41-3.52-3.84-3.52-6.59 0-1.46.37-2.83 1.08-4.01 3.91 4.81 9.76 7.97 16.36 8.31-.15-.58-.21-1.18-.21-1.81 0-4.39 3.55-7.94 7.93-7.94 2.28 0 4.36.97 5.79 2.5 1.81-.35 3.5-1.01 5.05-1.92-.59 1.85-1.86 3.41-3.49 4.39 1.6-.2 3.12-.61 4.54-1.25-1.05 1.6-2.39 2.98-3.94 4.11.01.33.02.69.02 1.03.01 10.49-7.99 22.58-22.58 22.58"/></svg>